<svg xmlns="http://www.w3.org/2000/svg" xmlns:xlink="http://www.w3.org/1999/xlink" version="1.1" x="0px" y="0px" viewBox="0 0 512 640" enable-background="new 0 0 512 512" xml:space="preserve"><g><g><path d="M396.838,180.976L452.879,66.98l-10.769-5.294l-54.384,110.626C352.703,141.041,306.536,122,256,122    c-49.995,0-95.713,18.634-130.597,49.311L69.858,61.623l-10.706,5.421l57.122,112.804C80.296,215.717,58,265.303,58,320v64    c0,37.944,90.673,70,198,70s198-32.056,198-70v-64C454,265.872,432.159,216.754,396.838,180.976z M256,134    c102.561,0,186,83.439,186,186c0,12.523-20,27.209-52.194,38.329C353.077,371.014,305.557,378,256,378    s-97.077-6.986-133.806-19.671C90,347.209,70,332.523,70,320C70,217.439,153.439,134,256,134z M389.806,422.329    C353.077,435.014,305.557,442,256,442s-97.077-6.986-133.806-19.671C90,411.209,70,396.523,70,384v-40.456    C98.039,370.318,171.903,390,256,390s157.961-19.682,186-46.456V384C442,396.523,422,411.209,389.806,422.329z"/><path d="M158.734,273.464c4.174,0,7.569-3.395,7.569-7.568s-3.396-7.569-7.569-7.569c-4.173,0-7.568,3.396-7.568,7.569    S154.561,273.464,158.734,273.464z"/><path d="M353.266,273.464c4.174,0,7.568-3.395,7.568-7.568s-3.395-7.569-7.568-7.569s-7.569,3.396-7.569,7.569    S349.092,273.464,353.266,273.464z"/></g></g><text x="0" y="527" fill="#000000" font-size="5px" font-weight="bold" font-family="'Helvetica Neue', Helvetica, Arial-Unicode, Arial, Sans-serif">Created by Richard Schumann</text><text x="0" y="532" fill="#000000" font-size="5px" font-weight="bold" font-family="'Helvetica Neue', Helvetica, Arial-Unicode, Arial, Sans-serif">from the Noun Project</text></svg>