<?xml version="1.0" standalone="no"?><!-- Generator: Adobe Fireworks CS6, Export SVG Extension by Aaron Beall (http://fireworks.abeall.com) . Version: 0.6.1  --><!DOCTYPE svg PUBLIC "-//W3C//DTD SVG 1.1//EN" "http://www.w3.org/Graphics/SVG/1.1/DTD/svg11.dtd"><svg id="Untitled-P%E1gina%201" viewBox="0 0 26 31" style="background-color:#ffffff00" version="1.1"	xmlns="http://www.w3.org/2000/svg" xmlns:xlink="http://www.w3.org/1999/xlink" xml:space="preserve"	x="0px" y="0px" width="26px" height="31px">	<path d="M 18.2875 0 L 18.2875 1.1527 C 18.2293 1.5774 18.0548 1.9413 17.9966 2.366 C 17.6476 4.4288 14.5649 7.0978 12.7617 7.1584 C 12.5872 7.1584 12.4709 7.2797 12.2964 7.2797 L 12.1219 7.2797 C 12.1219 7.1584 12.0638 7.0371 12.0638 6.8552 C 12.0638 3.8218 14.2159 0.6068 18.113 0 L 18.2875 0 ZM 12.9944 8.4324 C 15.2046 8.4324 16.6007 7.0978 18.9855 7.0978 C 20.6141 7.0978 23.2316 8.1898 24.6275 10.0703 C 22.0682 11.8903 21.2539 14.0137 21.2539 16.1976 C 21.2539 18.5029 22.4173 21.3543 25.5 22.6887 C 24.9764 24.8123 21.661 31 18.4038 31 C 16.4843 31 14.9139 29.726 12.9944 29.726 C 10.9586 29.726 9.4463 31 7.585 31 C 6.1891 31 5.1421 30.2114 3.688 28.634 C 2.2337 26.9354 1.4194 25.1761 0.7215 23.5382 C 0.3725 22.6887 -0.5 18.9276 -0.5 17.6536 L -0.5 15.7123 C -0.4418 15.1664 -0.3836 14.4989 -0.2674 13.9529 C -0.151 13.2856 0.1398 12.5576 0.3725 11.8903 C 1.3612 8.7965 4.7931 7.0978 7.0616 7.0978 C 9.4463 7.0978 10.9005 8.4324 12.9944 8.4324 Z" fill="#006dd9"/></svg>