<?xml version="1.0" standalone="no"?><!-- Generator: Adobe Fireworks CS6, Export SVG Extension by Aaron Beall (http://fireworks.abeall.com) . Version: 0.6.1  --><!DOCTYPE svg PUBLIC "-//W3C//DTD SVG 1.1//EN" "http://www.w3.org/Graphics/SVG/1.1/DTD/svg11.dtd"><svg id="Untitled-P%E1gina%201" viewBox="0 0 44 36" style="background-color:#ffffff00" version="1.1"	xmlns="http://www.w3.org/2000/svg" xmlns:xlink="http://www.w3.org/1999/xlink" xml:space="preserve"	x="0px" y="0px" width="44px" height="36px">	<g id="Capa%201">		<path d="M 42.2291 0.5117 L 1.6346 0.5117 C 0.9536 0.3749 0.1362 1.4696 0 1.8801 L 0 28.2898 C 0 28.5634 0.8174 29.3845 1.3622 29.6581 L 18.2539 29.6581 C 17.9814 31.7107 17.8452 33.2159 17.709 34.5842 C 17.1641 34.4474 15.6656 34.5842 15.6656 35.5421 C 15.6656 35.8158 16.0743 36.3632 16.3467 36.5 L 27.517 36.5 C 28.0619 36.5 28.3344 35.679 28.3344 35.5421 C 28.3344 34.1738 26.291 34.5842 26.291 34.5842 C 26.1548 33.079 26.0186 31.7107 25.7461 29.6581 L 42.5016 29.6581 C 42.9102 29.6581 43.7275 28.8372 44 28.153 L 44 1.8801 C 44 1.1959 42.5016 0.5117 42.2291 0.5117 ZM 42.2291 2.017 L 42.2291 28.153 L 1.7709 28.153 L 1.7709 2.017 L 42.2291 2.017 ZM 32 8.9961 C 32.1024 8.9436 21.866 5.4633 21.8413 5.5 L 12 8.54 L 12 9.452 L 31.6825 9.452 C 31.8413 9.3 31.9005 9.047 32 8.9961 ZM 27.0793 8.236 L 16.762 8.236 L 21.8413 6.716 L 27.0793 8.236 ZM 22.1587 10.972 L 21.3651 10.972 C 20.8889 13.708 19.7778 12.188 19.7778 14.62 C 19.7778 17.66 23.1111 15.8361 23.1111 17.964 C 23.1111 18.1161 22.6349 19.028 21.8413 19.028 C 21.0476 19.028 20.4127 17.964 20.7302 17.2041 L 19.7778 17.2041 L 19.7778 18.876 C 19.7778 19.18 20.7302 19.7879 21.0476 20.092 C 21.2064 20.548 20.8889 21.46 22 21.612 C 22.3175 21.1561 22.3175 20.396 22.6349 20.092 C 22.7936 19.7879 23.4286 19.484 23.5873 19.332 C 23.9048 18.876 24.2222 18.2681 24.2222 17.964 C 24.2222 14.772 20.7302 16.596 20.7302 14.62 C 20.7302 14.012 21.2064 13.556 21.8413 13.556 C 23.1111 13.556 22.4762 14.772 23.4286 14.772 C 23.9048 14.772 24.0635 14.468 24.0635 14.1639 C 24.0635 13.708 22.7936 12.7959 22.4762 12.34 C 22.4762 11.8839 22.4762 11.4281 22.1587 10.972 ZM 12.9524 11.4281 L 12.1587 11.4281 L 12.1587 21.46 L 12.9524 21.46 L 12.9524 11.4281 ZM 17.873 11.7319 L 17.5555 11.4281 L 16.762 11.4281 L 16.762 21.46 L 17.5555 21.46 C 17.7143 21.308 17.7143 21.1561 17.873 21.0039 L 17.873 11.7319 ZM 27.238 11.8839 C 27.0793 11.7319 27.0793 11.5801 26.9207 11.4281 L 26.127 11.4281 L 26.127 21.46 L 26.9207 21.46 C 27.0793 21.308 27.0793 21.0039 27.238 20.7 L 27.238 11.8839 ZM 31.6825 21.1561 L 31.6825 11.4281 L 30.7302 11.4281 L 30.7302 21.46 L 31.5238 21.46 L 31.6825 21.1561 ZM 31.8413 23.436 L 12.1587 23.436 L 12 24.5 L 31.6825 24.5 C 31.8413 24.348 32 24.348 32 23.8921 C 32 23.588 31.8413 23.588 31.8413 23.436 Z" fill="#73b9ff"/>	</g></svg>