<?xml version="1.0" standalone="no"?><!-- Generator: Adobe Fireworks CS6, Export SVG Extension by Aaron Beall (http://fireworks.abeall.com) . Version: 0.6.1  --><!DOCTYPE svg PUBLIC "-//W3C//DTD SVG 1.1//EN" "http://www.w3.org/Graphics/SVG/1.1/DTD/svg11.dtd"><svg id="Untitled-P%E1gina%201" viewBox="0 0 23 22" style="background-color:#ffffff00" version="1.1"	xmlns="http://www.w3.org/2000/svg" xmlns:xlink="http://www.w3.org/1999/xlink" xml:space="preserve"	x="0px" y="0px" width="23px" height="22px">	<g id="Capa%201">		<path d="M 19.4506 7.3334 L 21.6514 7.3334 C 21.9351 7.3334 23 8.1052 23 8.7228 L 23 13.2 C 22.4323 14.8983 21.2252 14.6666 20.4445 14.6666 C 19.8766 14.6666 19.4506 14.6666 18.9537 14.435 C 18.6698 14.3581 18.0309 13.6632 18.0309 13.2772 L 18.0309 8.2596 C 17.4628 3.8596 14.4813 1.7753 11.5 1.7753 C 9.0864 1.7753 6.6729 2.8561 5.3239 6.5613 C 5.1823 6.9473 5.0402 7.7194 5.0402 7.9507 L 5.0402 15.4387 C 4.8982 16.5193 6.7439 18.5262 7.7378 18.4492 L 7.9506 18.4492 C 7.9506 17.7543 8.5895 16.5965 9.2994 16.5965 L 13.3456 16.5965 C 14.8364 16.9822 14.7654 18.3718 14.7654 19.2983 C 14.7654 19.5298 14.6945 20.456 14.5524 20.9965 C 14.4813 21.2281 13.8425 22 13.4166 22 L 9.2994 22 C 8.7313 21.923 7.7378 20.7648 8.0215 20.1472 C 6.8149 20.0703 5.5372 19.6842 4.4014 18.1404 C 3.6914 17.1367 3.4075 16.1334 3.4075 15.1299 C 3.4075 14.9755 3.5494 14.6666 3.4075 14.6666 L 1.4907 14.6666 C 1.0649 14.5894 0 13.8948 0 13.2 L 0 8.8 C 0 8.414 0.7098 7.3334 1.2776 7.3334 L 3.4785 7.3334 C 3.5494 7.2562 3.5494 7.179 3.5494 7.1017 C 4.4014 2.3158 8.3055 0 11.5 0 C 14.7654 0 18.5986 2.3158 19.4506 7.3334 ZM 3.3364 9.1089 L 3.3364 12.8141 L 1.6327 12.8141 L 1.6327 9.1089 L 3.3364 9.1089 ZM 21.3673 9.1089 L 21.3673 12.8141 L 19.6636 12.8141 L 19.6636 9.1089 L 21.3673 9.1089 ZM 10.2933 10.4983 C 10.2933 11.3473 9.7252 11.7333 9.1575 11.7333 C 8.3766 11.7333 8.0215 11.0388 8.0215 10.4983 C 8.0215 9.8036 8.5895 9.2633 9.1575 9.2633 C 9.7963 9.2633 10.2933 9.8036 10.2933 10.4983 ZM 15.1914 10.4983 C 15.1914 11.4245 14.6234 11.7333 14.0555 11.7333 C 13.2748 11.7333 12.9198 11.0388 12.9198 10.4983 C 12.9198 9.8036 13.4878 9.2633 14.0555 9.2633 C 14.7654 9.2633 15.1914 9.8036 15.1914 10.4983 ZM 13.0616 18.3718 L 13.0616 20.2247 L 9.6544 20.2247 L 9.6544 18.3718 L 13.0616 18.3718 Z" fill="#bfdfff"/>	</g></svg>