<?xml version="1.0" standalone="no"?><!-- Generator: Adobe Fireworks CS6, Export SVG Extension by Aaron Beall (http://fireworks.abeall.com) . Version: 0.6.1  --><!DOCTYPE svg PUBLIC "-//W3C//DTD SVG 1.1//EN" "http://www.w3.org/Graphics/SVG/1.1/DTD/svg11.dtd"><svg id="Untitled-P%E1gina%201" viewBox="0 0 52 40" style="background-color:#ffffff00" version="1.1"	xmlns="http://www.w3.org/2000/svg" xmlns:xlink="http://www.w3.org/1999/xlink" xml:space="preserve"	x="0px" y="0px" width="52px" height="40px">	<g id="Capa%201">		<path d="M 15.1 0 C 15.9667 0.2185 16.8333 0.437 17.4834 0.8739 C 18.35 1.3109 19.65 3.2771 20.3 3.2771 C 20.7334 3.2771 23.55 2.8401 23.9834 2.8401 C 24.6333 2.8401 27.45 3.0586 28.9667 3.2771 C 33.3 3.9325 40.8833 7.6466 43.4834 13.5453 C 44.35 13.7638 45.2167 13.5453 46.0833 13.7638 C 46.7334 13.7638 47.8167 14.8562 48.4667 14.8562 C 48.9 14.8562 49.9834 14.4193 51.2833 14.2008 L 51.5 16.167 L 50.2 16.167 C 50.4167 17.0409 50.6333 17.6964 50.6333 18.3518 C 50.6333 19.8811 49.55 20.5365 48.25 20.5365 C 46.3 20.5365 45.8667 19.0072 45.8667 17.9148 C 45.8667 17.2594 46.0833 16.8224 46.5166 16.167 C 46.0833 15.7301 45.2167 15.5116 44.7833 15.5116 C 44.35 15.5116 44.1333 15.7301 44.1333 15.9485 C 44.1333 16.604 44.7833 19.2256 44.7833 19.6626 C 44.7833 23.8136 42.6167 28.62 38.0667 32.3341 L 38.0667 37.1405 C 36.9834 40.4176 35.0333 39.9807 33.0833 39.9807 C 31.1333 39.9807 28.75 40.4176 28.3167 36.4851 L 21.6 36.4851 C 20.5166 40.4176 18.7833 39.9807 16.4 39.9807 C 15.75 39.9807 14.6667 39.9807 14.0166 39.7622 C 13.15 39.5437 11.6333 38.0144 11.6333 37.5774 L 11.6333 33.2079 C 9.9 31.6786 8.1667 29.4939 6.4333 28.1831 C 5.35 27.5276 4.05 28.1831 2.75 27.9646 C 2.5333 27.9646 -0.5 26.4353 -0.5 25.3429 L -0.5 14.2008 C 0.8 10.9237 4.2666 11.3606 6.65 11.1422 C 7.5166 9.3943 10.55 6.9911 12.5 5.8988 L 12.5 0 L 15.1 0 ZM 18.35 6.3357 C 20.3 6.1172 23.7666 5.6803 24.2 5.6803 C 30.9167 5.6803 41.9667 9.8313 41.9667 19.6626 C 41.9667 23.5951 40.0166 27.0907 35.25 31.0232 L 35.25 36.922 C 34.6 37.3589 33.5166 37.3589 33.0833 37.3589 C 29.8333 37.3589 31.35 36.0481 30.7 32.9895 C 27.2334 33.8634 26.8 33.8634 24.2 33.8634 C 23.7666 33.8634 20.7334 33.6449 19 33.2079 C 18.1333 34.0818 18.5667 35.6112 18.35 36.922 C 17.9167 37.3589 16.8333 37.3589 16.4 37.3589 C 15.9667 37.3589 14.45 37.3589 14.2334 36.7036 L 14.2334 31.4602 C 12.2833 30.3678 9.0333 27.5276 7.95 25.3429 L 2.9667 25.3429 C 2.75 25.1245 2.3167 24.6875 2.1 24.469 L 2.1 15.2932 C 2.3167 14.8562 2.5333 14.2008 3.1833 14.2008 L 7.95 14.2008 C 9.0333 11.5791 13.3667 8.739 15.3167 7.4281 L 15.3167 3.0586 C 16.6167 3.0586 17.4834 5.2433 18.35 6.3357 ZM 27.45 7.6466 C 30.2666 8.0835 34.1667 9.1759 36.9834 12.2345 L 35.6833 13.5453 C 32.2167 10.2682 28.5333 9.3943 24.6333 9.3943 L 24.6333 7.6466 L 27.45 7.6466 ZM 15.9667 13.5453 C 15.9667 14.6377 14.8833 15.5116 14.0166 15.5116 C 12.7167 15.5116 12.2833 14.8562 12.2833 13.7638 C 12.2833 12.8899 12.2833 11.7976 14.0166 11.7976 C 15.1 11.7976 15.9667 12.8899 15.9667 13.5453 ZM 48.6833 18.3518 L 47.8167 18.1333 L 47.8167 17.4779 L 48.4667 17.4779 C 48.4667 17.6964 48.6833 18.1333 48.6833 18.3518 Z" fill="#ffbf00"/>	</g></svg>