<?xml version="1.0" standalone="no"?><!-- Generator: Adobe Fireworks CS6, Export SVG Extension by Aaron Beall (http://fireworks.abeall.com) . Version: 0.6.1  --><!DOCTYPE svg PUBLIC "-//W3C//DTD SVG 1.1//EN" "http://www.w3.org/Graphics/SVG/1.1/DTD/svg11.dtd"><svg id="Untitled-P%E1gina%201" viewBox="0 0 11 8" style="background-color:#ffffff00" version="1.1"	xmlns="http://www.w3.org/2000/svg" xmlns:xlink="http://www.w3.org/1999/xlink" xml:space="preserve"	x="0px" y="0px" width="11px" height="8px">	<path d="M 11.0199 0.5933 C 11.0199 1.1799 9.8862 1.9619 9.3193 2.6789 C 8.5004 3.5913 7.4926 4.569 6.6738 5.4815 C 6.5479 5.5466 4.6582 7.8278 4.1544 7.8278 C 3.6504 7.8278 0.69 4.569 0.5011 4.3083 C 0.1861 3.7869 -0.0028 3.7217 -0.0028 3.3958 C -0.0028 2.8744 0.3751 2.6137 0.753 2.6137 C 1.3199 2.6137 1.8238 3.461 2.5166 4.178 C 3.0206 4.6342 3.5875 5.2859 4.1544 5.8725 C 5.981 3.9824 7.8705 1.8968 9.8231 -0.0584 C 9.8862 -0.1888 10.0751 -0.1888 10.2641 -0.1888 C 10.579 -0.1888 11.0199 0.2022 11.0199 0.5933 Z" fill="#ffffff"/></svg>