<?xml version="1.0" standalone="no"?><!-- Generator: Adobe Fireworks CS6, Export SVG Extension by Aaron Beall (http://fireworks.abeall.com) . Version: 0.6.1  --><!DOCTYPE svg PUBLIC "-//W3C//DTD SVG 1.1//EN" "http://www.w3.org/Graphics/SVG/1.1/DTD/svg11.dtd"><svg id="Untitled-P%E1gina%201" viewBox="0 0 22 12" style="background-color:#ffffff00" version="1.1"	xmlns="http://www.w3.org/2000/svg" xmlns:xlink="http://www.w3.org/1999/xlink" xml:space="preserve"	x="0px" y="0px" width="22px" height="12px">	<g id="Capa%201">		<path d="M 16.2963 1.275 L 13.7778 2.7 C 12.7407 1.8 11.9259 1.65 10.963 1.65 C 10.2222 1.65 10.2222 1.575 9.3334 1.95 C 7.4814 2.625 6.3704 5.1 6.6666 6.525 C 5.4074 7.275 2.8148 8.775 2.6666 8.775 C 2.4445 8.775 0.963 7.425 0.2222 6.675 C 0 6.45 0 6.15 0 5.925 C 0 4.8 3.9259 2.175 4.1482 2.1 C 6.6666 0.6 8.4445 0 10.963 0 C 12.7407 0 14.5186 0.3 16.2963 1.275 ZM 21.4074 0.6 C 21.4074 1.35 18.1482 2.775 17.9259 2.925 C 13.5555 5.325 1.8518 11.925 1.2593 11.925 C 0.5926 11.925 0.6666 11.55 0.6666 11.25 C 0.6666 11.1 0.6666 11.025 0.6666 10.95 C 1.6296 10.125 3.037 9.525 4.0741 8.925 C 8.3704 6.525 20.0741 0 20.6666 0 C 21.1852 0 21.4074 0.375 21.4074 0.6 ZM 12.2963 3.525 L 8.2963 5.7 C 8.5926 3.675 9.7778 3.225 10.963 3.225 C 11.4814 3.225 11.6296 3.15 12.2963 3.525 ZM 21.7037 5.25 C 21.9259 5.4 22 5.775 22 5.925 C 22 6.6 21.2593 7.125 20.5186 7.8 C 18.2963 9.6 15.8518 11.025 13.7778 11.55 C 12.8889 11.775 11.1852 12 10.963 12 C 9.4074 12 7.1852 11.4 5.7778 10.65 C 6.5186 10.2 8 9.225 8.2222 9.225 C 8.3704 9.225 8.6666 9.6 8.8889 9.675 C 9.6296 10.125 10.2222 10.275 10.963 10.275 C 13.2593 10.275 15.2593 8.475 15.2593 5.775 C 15.2593 5.7 15.2593 5.55 15.2593 5.4 C 16.5926 4.65 19.1111 3.225 19.3334 3.225 C 19.7778 3.225 21.6296 5.1 21.7037 5.25 ZM 13.7037 6.525 C 13.2593 7.95 12 8.775 11.037 8.775 C 10.8148 8.775 10.2222 8.625 9.7778 8.475 C 11.037 7.725 12.3704 6.975 13.7037 6.3 L 13.7037 6.525 Z" fill="#4796e2"/>	</g></svg>