<?xml version="1.0" standalone="no"?><!-- Generator: Adobe Fireworks CS6, Export SVG Extension by Aaron Beall (http://fireworks.abeall.com) . Version: 0.6.1  --><!DOCTYPE svg PUBLIC "-//W3C//DTD SVG 1.1//EN" "http://www.w3.org/Graphics/SVG/1.1/DTD/svg11.dtd"><svg id="Untitled-P%E1gina%201" viewBox="0 0 56 58" style="background-color:#ffffff00" version="1.1"	xmlns="http://www.w3.org/2000/svg" xmlns:xlink="http://www.w3.org/1999/xlink" xml:space="preserve"	x="0px" y="0px" width="56px" height="58px">	<g id="Capa%201">		<path d="M 12.9647 1.9752 C 12.9647 3.5913 11.7042 4.3096 10.8038 4.3096 C 9.5434 4.3096 8.8232 3.0526 8.8232 2.1548 C 8.8232 0.7183 9.5434 0 10.8038 0 C 12.0643 0 12.9647 1.0774 12.9647 1.9752 ZM 30.611 3.0526 C 32.4116 3.2322 35.2926 4.3096 37.2733 5.2075 C 38.8939 5.9257 45.0161 10.4149 45.0161 12.9288 C 45.0161 13.4675 44.836 13.8266 44.4759 14.1857 C 38.3537 17.418 31.8714 20.6501 25.389 23.8823 L 31.8714 37.1703 C 31.6913 38.4272 30.611 38.7864 30.0707 38.7864 C 29.5305 38.7864 28.9904 38.6068 28.8103 38.2477 C 26.4695 33.9381 24.4888 29.6285 22.328 25.3189 L 3.7814 34.4768 C 1.4405 33.9381 0.9003 29.6285 0.9003 29.2693 L 0.9003 23.7028 C 4.5016 8.2601 13.6849 2.6935 25.0289 2.6935 C 25.389 2.6935 28.8103 2.6935 30.611 3.0526 ZM 40.6945 12.2105 L 4.3215 30.1672 L 4.5016 29.9876 C 4.5016 29.2693 4.5016 28.5511 4.3215 24.4211 C 7.3826 10.774 15.6656 6.1053 25.209 6.1053 C 29.1704 6.1053 37.0933 7.3622 40.6945 12.2105 ZM 18.0064 43.6347 C 19.8071 43.6347 21.0675 40.582 24.6688 40.582 C 28.09 40.582 29.3505 43.6347 31.1511 43.6347 C 32.9518 43.6347 34.2122 40.582 37.8135 40.582 C 41.2347 40.582 42.4952 43.6347 44.2958 43.6347 C 45.9164 43.6347 47.8971 40.582 50.9582 40.582 C 52.2186 40.582 56 41.4799 56 43.6347 C 56 44.8917 54.5595 45.4304 54.1993 45.4304 C 53.299 45.4304 52.2186 43.8143 50.9582 43.8143 C 48.7974 43.8143 48.2573 47.0464 44.4759 47.0464 C 40.5145 47.0464 40.3344 43.8143 37.8135 43.8143 C 35.8328 43.8143 34.5723 47.0464 31.3312 47.0464 C 27.1897 47.0464 26.8296 43.8143 24.6688 43.8143 C 22.6881 43.8143 21.4277 47.0464 18.0064 47.0464 C 14.2251 47.0464 13.6849 43.8143 11.5241 43.8143 C 9.5434 43.8143 8.463 47.0464 4.8618 47.0464 C 3.6013 47.0464 0 45.6099 0 43.6347 C 0 42.3777 0.9003 42.0186 1.6206 42.0186 C 2.701 42.0186 3.6013 43.6347 4.8618 43.6347 C 6.6624 43.6347 7.9229 40.582 11.3441 40.582 C 14.5852 40.582 16.5659 43.6347 18.0064 43.6347 ZM 18.0064 54.5883 C 20.1672 54.5883 21.2476 51.5356 24.6688 51.5356 C 27.91 51.5356 28.9904 54.5883 31.3312 54.5883 C 33.1318 54.5883 34.5723 51.5356 37.8135 51.5356 C 41.955 51.5356 42.1351 54.7678 44.4759 54.7678 C 46.2766 54.7678 46.8167 51.5356 50.9582 51.5356 C 51.8585 51.5356 56 52.2538 56 54.5883 C 56 55.6656 55.0997 56.3839 54.1993 56.3839 C 53.8392 56.3839 51.4984 54.7678 50.9582 54.7678 C 48.6174 54.7678 48.2573 58 44.4759 58 C 40.5145 58 40.1544 54.7678 37.8135 54.7678 C 35.4727 54.7678 35.1125 58 31.1511 58 C 27.1897 58 26.8296 54.7678 24.4888 54.7678 C 22.5081 54.7678 21.9678 58 18.0064 58 C 14.045 58 13.6849 54.7678 11.3441 54.7678 C 9.3633 54.7678 8.8232 58 4.8618 58 C 3.6013 58 0 56.743 0 54.5883 C 0 53.6904 0.9003 52.9721 1.6206 52.9721 C 2.3408 52.9721 3.4212 54.5883 4.8618 54.5883 C 7.3826 54.5883 7.5627 51.5356 11.5241 51.5356 C 14.7653 51.5356 16.0257 54.5883 18.0064 54.5883 Z" fill="#005ea9"/>	</g></svg>