<?xml version="1.0" standalone="no"?><!-- Generator: Adobe Fireworks CS6, Export SVG Extension by Aaron Beall (http://fireworks.abeall.com) . Version: 0.6.1  --><!DOCTYPE svg PUBLIC "-//W3C//DTD SVG 1.1//EN" "http://www.w3.org/Graphics/SVG/1.1/DTD/svg11.dtd"><svg id="Untitled-P%E1gina%201" viewBox="0 0 51 40" style="background-color:#ffffff00" version="1.1"	xmlns="http://www.w3.org/2000/svg" xmlns:xlink="http://www.w3.org/1999/xlink" xml:space="preserve"	x="0px" y="0px" width="51px" height="40px">	<g id="Capa%201">		<path d="M 50.8235 11.1013 C 50.1177 11.2775 49.2354 11.6299 48.353 12.1586 C 49.2354 12.8635 50.1177 13.3921 51 14.0969 C 50.2942 14.4493 49.4117 14.8018 48.5294 15.1542 C 49.2354 15.859 50.1177 16.3877 51 17.0925 C 50.2942 17.4449 49.4117 17.7974 48.5294 18.1498 C 49.2354 18.8546 50.1177 19.3832 51 20.0881 C 50.2942 20.4406 49.4117 20.793 48.5294 21.3216 C 49.2354 21.8502 50.1177 22.5551 51 23.0837 C 50.2942 23.4361 49.4117 23.7886 48.5294 24.3172 C 49.2354 24.8458 50.1177 25.5507 50.8235 26.0793 C 47.1177 27.6652 43.0588 29.2511 39 31.0132 C 39 31.3657 39 31.8943 38.8235 32.2467 C 35.1177 33.8326 31.0588 35.2423 27.1765 36.652 C 27 36.2996 27 35.7709 26.8235 35.5947 L 15.8823 40 L 0 25.7269 C 0.7058 25.5507 1.5883 25.1982 2.2942 24.8458 C 1.5883 24.141 0.7058 23.4361 0 22.7313 C 0.7058 22.3788 1.5883 22.2026 2.2942 21.8502 C 1.5883 21.1454 0.7058 20.2643 0 19.7357 C 0.7058 19.3832 1.5883 19.207 2.2942 18.8546 C 1.5883 18.1498 0.7058 17.2687 0 16.7401 C 0.7058 16.3877 1.5883 16.2114 2.2942 15.859 C 1.7646 15.3304 0.8823 14.4493 0 13.7445 C 0.5294 13.3921 1.4117 13.2159 2.2942 12.8635 C 1.7646 12.3348 0.8823 11.4537 0 10.7489 L 13.0588 6.5198 L 12.5294 5.9912 L 24 2.1146 C 24.5294 2.467 24.8823 2.8194 25.2354 2.8194 L 34.7646 0 L 50.8235 11.1013 ZM 47.647 10.7489 L 38.8235 14.2731 L 38.2942 13.7445 L 46.2354 10.5727 L 34.4117 1.9384 L 27 4.4053 L 26.647 4.0529 L 34.4117 1.5859 L 47.647 10.7489 ZM 37.0588 15.1542 L 37.0588 31.3657 L 29.1177 34.3612 L 29.1177 17.6212 L 15.5294 6.5198 L 23.647 3.8766 C 28.0588 7.4009 32.647 11.2775 37.0588 15.1542 ZM 43.0588 10.0441 L 36.8823 12.511 C 35.8235 12.1586 35.4706 10.7489 34.9412 9.8679 C 33.7058 7.2247 31.2354 6.3436 28.9412 6.1674 C 28.9412 5.9912 28.7646 5.815 28.5883 5.6388 C 30.353 5.1101 32.2942 4.4053 34.0588 3.8766 L 43.0588 10.0441 ZM 14.8235 8.1057 L 4.5883 11.4537 L 16.5883 22.2026 L 26.8235 18.1498 C 26.8235 18.326 26.8235 18.6784 26.647 18.6784 C 23.2942 20.2643 19.5883 21.8502 15.8823 23.2599 L 2.8235 11.2775 L 14.4706 7.7533 L 14.8235 8.1057 ZM 17.4706 12.511 C 18.7058 15.859 24.1765 14.8018 25.7646 16.9163 L 16.7646 20.2643 L 7.7646 12.3348 L 16.2354 9.5154 C 17.2942 9.6917 17.1177 11.4537 17.4706 12.511 ZM 47.8235 13.7445 L 39.1765 17.0925 L 39.1765 15.859 L 46.5883 12.8635 C 47.1177 13.2159 47.4706 13.3921 47.8235 13.7445 ZM 15.7058 25.1982 L 26.8235 20.6168 L 26.8235 21.8502 L 16.0588 26.2555 L 2.8235 14.2731 C 3 14.2731 3.353 14.0969 3.353 14.0969 L 15.7058 25.1982 ZM 47.8235 16.7401 L 39.1765 20.2643 C 39.1765 19.9119 39.1765 19.3832 39.353 18.8546 C 41.8235 17.9736 46.2354 16.0352 46.5883 16.0352 C 47.1177 16.0352 47.4706 16.3877 47.8235 16.7401 ZM 15.8823 28.1938 L 26.8235 23.6123 C 27.5294 25.3745 25.0588 25.3745 23.8235 26.0793 C 21.353 27.3128 18.7058 28.1938 16.2354 29.2511 L 2.8235 17.2687 C 3 17.2687 3.353 17.0925 3.353 17.0925 L 15.8823 28.1938 ZM 47.8235 19.7357 L 39.1765 23.2599 C 39.1765 22.9075 39.1765 22.3788 39.353 21.8502 C 41.647 20.9692 46.0588 19.0308 46.5883 19.0308 C 46.9412 19.0308 47.4706 19.5594 47.8235 19.7357 ZM 15.8823 31.1895 L 26.8235 26.7841 L 26.8235 28.0176 L 16.2354 32.2467 L 2.8235 20.2643 C 3 20.2643 3.1765 20.2643 3.353 20.0881 L 15.8823 31.1895 ZM 47.8235 22.7313 L 39.1765 26.2555 C 39.1765 25.9031 38.8235 25.022 39.353 24.8458 C 41.647 23.6123 46.2354 22.0264 46.5883 22.0264 C 47.1177 22.0264 47.4706 22.5551 47.8235 22.7313 ZM 3.7058 23.2599 L 15.8823 34.185 L 26.8235 29.7797 L 26.8235 31.0132 L 16.2354 35.2423 L 3 23.2599 L 3.7058 23.2599 ZM 47.8235 25.7269 L 39.1765 29.2511 L 39.1765 28.0176 L 46.5883 25.022 C 47.1177 25.3745 47.4706 25.5507 47.8235 25.7269 ZM 15.8823 37.1806 L 26.8235 32.7753 L 26.8235 34.0088 L 16.2354 38.2379 L 2.8235 26.4317 C 3 26.4317 3.353 26.2555 3.353 26.2555 L 15.8823 37.1806 Z" fill="#85b200"/>	</g></svg>