<?xml version="1.0" standalone="no"?><!-- Generator: Adobe Fireworks CS6, Export SVG Extension by Aaron Beall (http://fireworks.abeall.com) . Version: 0.6.1  --><!DOCTYPE svg PUBLIC "-//W3C//DTD SVG 1.1//EN" "http://www.w3.org/Graphics/SVG/1.1/DTD/svg11.dtd"><svg id="Untitled-P%E1gina%201" viewBox="0 0 37 40" style="background-color:#ffffff00" version="1.1"	xmlns="http://www.w3.org/2000/svg" xmlns:xlink="http://www.w3.org/1999/xlink" xml:space="preserve"	x="0px" y="0px" width="37px" height="40px">	<g id="Capa%201">		<path d="M 18.4447 1.337 C 18.9962 1.337 20.3181 1.6702 20.762 2.0039 C 21.0907 1.7622 21.4579 1.47 21.8669 1.1169 C 20.8793 0.2063 19.5083 0 18.4447 0 C 17.8925 0 16.015 0.3342 15.4628 0.8914 C 10.1611 5.6824 5.0806 11.0308 0 16.156 L 0 39.5544 C 0.1105 39.7771 0.3313 39.8885 0.4418 40 L 36.5582 40 C 36.7791 39.8885 36.8895 39.6658 37 39.5544 L 37 16.156 C 37 15.9558 33.3525 12.3955 29.3829 8.5193 L 29.6558 10.6375 L 35.4537 16.3789 L 20.985 26.6296 C 19.4388 25.9611 19.4388 26.0725 18.3344 26.0725 C 17.3403 26.0725 17.1194 25.9611 16.015 26.5181 L 1.5463 16.4902 C 6.2955 11.6992 11.1552 6.6853 16.2358 2.0056 C 16.5671 1.6714 17.8925 1.337 18.4447 1.337 ZM 14.5791 27.2981 L 1.3254 37.8831 L 1.3254 18.0502 L 14.5791 27.2981 ZM 35.6746 37.8831 L 22.3104 27.521 L 35.6746 18.0502 L 35.6746 37.8831 ZM 20.3224 27.8552 C 24.9612 31.1978 29.6 34.9861 34.2388 38.663 L 2.5403 38.663 C 6.8478 35.0974 11.7074 30.7522 16.2358 27.9666 C 17.3403 27.1866 17.3403 27.521 18.3344 27.521 C 18.6656 27.521 19.6597 27.4094 20.3224 27.8552 Z" fill="#004096"/>		<path d="M 25.575 0.2683 C 26.641 3.677 27.6335 7.219 28.0647 11.124 C 28.4959 15.1956 25.697 18.7119 23.0995 19.9186 C 22.2357 20.3201 21.1906 20.6047 20.1064 20.5068 C 19.7883 20.521 19.2644 20.3643 19.1034 20.4392 C 18.996 20.4891 18.9042 20.8657 18.8706 21.0815 C 18.5657 22.2927 18.3633 23.5916 18.3512 24.7379 C 17.8177 24.8506 17.2067 24.9321 16.5963 25.0139 C 16.7906 23.9863 16.9697 22.9063 17.1787 21.9352 C 19.0443 13.2615 21.4473 10.3552 21.7095 9.9454 C 21.7095 9.9454 21.7628 9.9203 21.66 9.8372 C 19.7452 11.2571 17.4424 13.1611 16.1409 18.6733 C 15.248 17.9639 14.9984 17.5786 14.5647 16.5955 C 13.9883 15.2886 13.7601 13.7578 13.9023 12.0574 C 14.2004 8.2742 16.7035 6.437 18.7791 5.0613 C 19.6066 4.4731 20.5894 3.9409 21.4957 3.3799 C 22.8283 2.616 24.2849 1.2728 25.4757 0.0557 L 25.575 0.2683 Z" fill="#85b200"/>	</g></svg>