<svg xmlns="http://www.w3.org/2000/svg" xmlns:xlink="http://www.w3.org/1999/xlink" version="1.1" x="0px" y="0px" viewBox="0 0 96 120" enable-background="new 0 0 96 96" xml:space="preserve"><g><g><path fill="#000000" d="M72,96H24c-5.514,0-10-4.486-10-10V10c0-5.514,4.486-10,10-10h36.829L82,21.171V86    C82,91.514,77.514,96,72,96z M24,4c-3.309,0-6,2.691-6,6v76c0,3.309,2.691,6,6,6h48c3.309,0,6-2.691,6-6V22.829L59.171,4H24z"/></g><g><path fill="#000000" d="M80,24H68c-5.514,0-10-4.486-10-10V2c0-1.104,0.896-2,2-2s2,0.896,2,2v12c0,3.309,2.691,6,6,6h12    c1.104,0,2,0.896,2,2S81.104,24,80,24z"/></g></g><g><path fill="#000000" d="M48,60c-1.104,0-2-0.896-2-2V32c0-1.104,0.896-2,2-2s2,0.896,2,2v26C50,59.104,49.104,60,48,60z"/></g><g><path fill="#000000" d="M48,63.829L37.586,53.414c-0.781-0.781-0.781-2.047,0-2.828c0.78-0.781,2.048-0.781,2.828,0L48,58.171   l7.586-7.585c0.78-0.781,2.048-0.781,2.828,0c0.781,0.781,0.781,2.047,0,2.828L48,63.829z"/></g><g><path fill="#000000" d="M59,72H37c-1.104,0-2-0.896-2-2s0.896-2,2-2h22c1.104,0,2,0.896,2,2S60.104,72,59,72z"/></g><text x="0" y="111" fill="#000000" font-size="5px" font-weight="bold" font-family="'Helvetica Neue', Helvetica, Arial-Unicode, Arial, Sans-serif">Created by lionlionleo</text><text x="0" y="116" fill="#000000" font-size="5px" font-weight="bold" font-family="'Helvetica Neue', Helvetica, Arial-Unicode, Arial, Sans-serif">from the Noun Project</text></svg>