<?xml version="1.0" standalone="no"?><!-- Generator: Adobe Fireworks CS6, Export SVG Extension by Aaron Beall (http://fireworks.abeall.com) . Version: 0.6.1  --><!DOCTYPE svg PUBLIC "-//W3C//DTD SVG 1.1//EN" "http://www.w3.org/Graphics/SVG/1.1/DTD/svg11.dtd"><svg id="Untitled-P%E1gina%201" viewBox="0 0 36 36" style="background-color:#ffffff00" version="1.1"	xmlns="http://www.w3.org/2000/svg" xmlns:xlink="http://www.w3.org/1999/xlink" xml:space="preserve"	x="0px" y="0px" width="36px" height="36px">	<g id="Capa%201">		<path d="M 23.3331 8.4001 L 23.3331 11.7999 L 20.6425 11.7999 C 20.2523 11.7999 19.8627 12.4252 19.8627 12.7768 L 19.8627 15.0827 L 23.6062 15.0827 L 22.7093 17.8179 L 19.8627 17.8179 L 19.8627 27.1579 L 15.6121 27.1579 L 15.6121 17.8179 L 13.2335 17.8179 L 13.2335 15.0827 L 15.6512 15.0827 L 15.6512 11.2136 C 15.6901 11.0573 15.7292 10.8231 15.7292 10.7057 C 15.9242 9.377 17.64 8.4391 18.7317 8.4001 L 23.3331 8.4001 ZM 0 18 C 0 27.9414 8.0793 36 18.0456 36 C 28.0119 36 36.0912 27.9414 36.0912 18 C 36.0912 8.0586 28.0119 0 18.0456 0 C 8.0793 0 0 8.0586 0 18 Z" fill="#72bbff"/>	</g></svg>