<?xml version="1.0" standalone="no"?><!-- Generator: Adobe Fireworks CS6, Export SVG Extension by Aaron Beall (http://fireworks.abeall.com) . Version: 0.6.1  --><!DOCTYPE svg PUBLIC "-//W3C//DTD SVG 1.1//EN" "http://www.w3.org/Graphics/SVG/1.1/DTD/svg11.dtd"><svg id="Untitled-P%E1gina%201" viewBox="0 0 60 47" style="background-color:#ffffff00" version="1.1"	xmlns="http://www.w3.org/2000/svg" xmlns:xlink="http://www.w3.org/1999/xlink" xml:space="preserve"	x="0px" y="0px" width="60px" height="47px">	<g id="Capa%201">		<path d="M 2.7386 28.8841 C 2.3148 30.835 1.7286 34.1504 0.9808 38.8309 L 0.2797 43.6086 C 0.189 44.2516 0.1182 44.7736 0.0787 45.165 C 0.0417 45.3341 0.0332 45.4877 0.0449 45.6275 L 0.0034 45.8145 C -0.0051 45.8586 0.0022 45.9256 0.0278 46.02 C 0.0192 46.0641 0.0306 46.1103 0.0656 46.1612 C 0.1569 46.3595 0.2781 46.53 0.4286 46.6752 C 0.574 46.8217 0.7594 46.9135 0.9735 46.9634 C 1.0577 46.9828 1.1366 46.99 1.2043 46.9834 C 1.2743 46.9757 1.3513 46.9816 1.4377 47 C 1.5763 46.9865 1.7404 46.9578 1.9307 46.9093 L 3.4114 46.6385 L 7.953 45.6517 C 13.2994 44.4855 16.324 43.8457 17.0238 43.7325 C 17.3531 43.6735 17.6025 43.5183 17.7695 43.2649 C 17.9347 43.0156 17.9955 42.7394 17.9465 42.4402 C 17.9005 42.1406 17.7471 41.9052 17.4935 41.7369 C 17.2383 41.5673 16.969 41.4991 16.6918 41.5262 C 15.4732 41.7422 12.3809 42.3887 7.4152 43.4632 L 4.7134 44.0629 C 7.9183 39.4833 11.5415 35.0546 15.5836 30.7744 C 19.6235 26.4951 23.9609 22.45 28.5996 18.6339 C 33.2395 14.8213 38.204 11.4692 43.4972 8.5806 C 48.7944 5.6871 54.0249 3.5538 59.1927 2.1704 C 59.4794 2.0999 59.6982 1.9264 59.8481 1.6494 C 59.9974 1.3718 60.0378 1.0905 59.9641 0.8071 C 59.8876 0.5239 59.7112 0.3056 59.4287 0.1552 C 59.1441 0.0057 58.863 -0.0369 58.5746 0.0323 C 53.219 1.4608 47.8119 3.6719 42.3616 6.6585 C 36.9109 9.6474 31.7947 13.1099 27.0176 17.0491 C 22.24 20.9854 17.7954 25.1536 13.6838 29.5539 C 9.5724 33.949 5.882 38.4756 2.6158 43.1281 C 2.7813 41.9634 2.9756 40.6502 3.2047 39.1902 C 3.9399 34.5534 4.5179 31.2798 4.9302 29.3734 C 4.9956 29.074 4.9429 28.7986 4.7769 28.5375 C 4.6062 28.2755 4.3701 28.1127 4.0708 28.048 C 3.7698 27.9821 3.4891 28.0278 3.2271 28.192 C 2.9681 28.356 2.8024 28.5887 2.7386 28.8841 L 2.7386 28.8841 Z" fill="#ffffff"/>	</g></svg>