<?xml version="1.0" standalone="no"?><!-- Generator: Adobe Fireworks CS6, Export SVG Extension by Aaron Beall (http://fireworks.abeall.com) . Version: 0.6.1  --><!DOCTYPE svg PUBLIC "-//W3C//DTD SVG 1.1//EN" "http://www.w3.org/Graphics/SVG/1.1/DTD/svg11.dtd"><svg id="Untitled-P%E1gina%201" viewBox="0 0 60 47" style="background-color:#ffffff00" version="1.1"	xmlns="http://www.w3.org/2000/svg" xmlns:xlink="http://www.w3.org/1999/xlink" xml:space="preserve"	x="0px" y="0px" width="60px" height="47px">	<g id="Capa%201">		<path d="M 2.7386 18.1159 C 2.3148 16.165 1.7286 12.8496 0.9808 8.1691 L 0.2797 3.3914 C 0.189 2.7484 0.1182 2.2264 0.0787 1.835 C 0.0417 1.6659 0.0332 1.5123 0.0449 1.3725 L 0.0034 1.1855 C -0.0051 1.1414 0.0022 1.0744 0.0278 0.98 C 0.0192 0.9359 0.0306 0.8897 0.0656 0.8388 C 0.1569 0.6405 0.2781 0.47 0.4286 0.3248 C 0.574 0.1783 0.7594 0.0865 0.9735 0.0366 C 1.0577 0.0172 1.1366 0.01 1.2043 0.0166 C 1.2743 0.0243 1.3513 0.0184 1.4377 0 C 1.5763 0.0135 1.7404 0.0422 1.9307 0.0907 L 3.4114 0.3615 L 7.953 1.3483 C 13.2994 2.5145 16.324 3.1543 17.0238 3.2675 C 17.3531 3.3265 17.6025 3.4817 17.7695 3.7351 C 17.9347 3.9844 17.9955 4.2606 17.9465 4.5598 C 17.9005 4.8594 17.7471 5.0948 17.4935 5.2631 C 17.2383 5.4327 16.969 5.5009 16.6918 5.4738 C 15.4732 5.2578 12.3809 4.6113 7.4152 3.5368 L 4.7134 2.9371 C 7.9183 7.5167 11.5415 11.9454 15.5836 16.2256 C 19.6235 20.5049 23.9609 24.55 28.5996 28.3662 C 33.2395 32.1787 38.204 35.5308 43.4972 38.4194 C 48.7944 41.3129 54.0249 43.4462 59.1927 44.8296 C 59.4794 44.9002 59.6982 45.0736 59.8481 45.3506 C 59.9974 45.6282 60.0378 45.9095 59.9641 46.1929 C 59.8876 46.4761 59.7112 46.6944 59.4287 46.8448 C 59.1441 46.9943 58.863 47.0369 58.5746 46.9677 C 53.219 45.5392 47.8119 43.3281 42.3616 40.3415 C 36.9109 37.3526 31.7947 33.8901 27.0176 29.9509 C 22.24 26.0147 17.7954 21.8464 13.6838 17.4461 C 9.5724 13.051 5.882 8.5244 2.6158 3.8719 C 2.7813 5.0366 2.9756 6.3498 3.2047 7.8098 C 3.9399 12.4466 4.5179 15.7202 4.9302 17.6266 C 4.9956 17.926 4.9429 18.2014 4.7769 18.4625 C 4.6062 18.7245 4.3701 18.8873 4.0708 18.952 C 3.7698 19.0179 3.4891 18.9722 3.2271 18.808 C 2.9681 18.644 2.8024 18.4112 2.7386 18.1159 L 2.7386 18.1159 Z" fill="#ffffff"/>	</g></svg>