<?xml version="1.0" standalone="no"?><!-- Generator: Adobe Fireworks CS6, Export SVG Extension by Aaron Beall (http://fireworks.abeall.com) . Version: 0.6.1  --><!DOCTYPE svg PUBLIC "-//W3C//DTD SVG 1.1//EN" "http://www.w3.org/Graphics/SVG/1.1/DTD/svg11.dtd"><svg id="Untitled-P%E1gina%201" viewBox="0 0 31 36" style="background-color:#ffffff00" version="1.1"	xmlns="http://www.w3.org/2000/svg" xmlns:xlink="http://www.w3.org/1999/xlink" xml:space="preserve"	x="0px" y="0px" width="31px" height="36px">	<g id="Capa%201">		<path d="M 26.6711 2.0645 C 26.6711 3.4839 27.7206 4.2581 28.9012 4.2581 C 30.3441 4.2581 31 3.2258 31 2.0645 C 31 0.9032 30.3441 0 28.9012 0 C 27.4582 0 26.6711 0.9032 26.6711 2.0645 ZM 19.7187 2.0645 C 19.7187 3.4839 20.7681 4.2581 21.9487 4.2581 C 23.5229 4.2581 24.0476 3.2258 24.0476 2.0645 C 24.0476 0.7742 23.2605 0 21.9487 0 C 20.5057 0 19.7187 0.9032 19.7187 2.0645 ZM 12.7663 2.0645 C 12.7663 3.4839 13.9468 4.2581 14.9963 4.2581 C 16.5704 4.2581 17.2263 3.2258 17.2263 2.0645 C 17.2263 0.6452 16.3081 0 14.9963 0 C 13.6845 0 12.7663 0.9032 12.7663 2.0645 ZM 26.6711 8.9032 C 26.6711 10.3226 27.7206 11.0968 28.9012 11.0968 C 30.3441 11.0968 31 10.0645 31 8.9032 C 31 7.6129 30.213 6.8387 28.9012 6.8387 C 27.4582 6.8387 26.6711 7.7419 26.6711 8.9032 ZM 19.7187 8.9032 C 19.7187 10.3226 21.1616 11.0968 21.9487 11.0968 C 23.3917 11.0968 24.0476 10.0645 24.0476 8.9032 C 24.0476 7.4839 23.3917 6.8387 21.9487 6.8387 C 20.3746 6.8387 19.7187 7.7419 19.7187 8.9032 ZM 12.7663 8.9032 C 12.7663 10.3226 14.078 11.0968 15.1274 11.0968 C 16.4392 11.0968 17.2263 10.0645 17.2263 8.9032 C 17.2263 7.4839 16.3081 6.8387 14.9963 6.8387 C 13.5533 6.8387 12.7663 7.7419 12.7663 8.9032 ZM 13.0286 14.9677 C 12.5039 17.8064 12.2415 20.9032 11.848 23.871 C 9.4868 24.6452 6.3385 25.2903 3.8462 26.3226 C 2.9279 26.8387 1.3538 27.0968 0.5667 28.2581 C -0.2204 29.1613 0.042 31.4839 0.042 31.871 C 0.042 32.129 0.3044 34.5806 0.5667 36 L 21.6863 36 C 22.4734 35.2258 26.1464 31.4839 26.1464 30.9677 C 26.1464 29.8065 23.3917 29.5484 23.3917 29.5484 C 21.2928 29.5484 19.8499 31.0968 17.4887 32.7742 L 17.2263 15.0968 C 16.964 14.0645 15.9145 13.5484 15.1274 13.5484 C 14.3404 13.5484 13.1598 13.8065 13.0286 14.9677 ZM 26.6711 15.7419 C 26.6711 16.9032 27.7206 17.9355 28.9012 17.9355 C 30.3441 17.9355 31 16.9032 31 15.7419 C 31 14.3226 30.3441 13.6774 28.9012 13.6774 C 27.4582 13.6774 26.6711 14.7097 26.6711 15.7419 ZM 19.7187 15.7419 C 19.7187 16.9032 20.7681 17.9355 21.9487 17.9355 C 23.3917 17.9355 24.0476 16.9032 24.0476 15.7419 C 24.0476 14.3226 23.3917 13.6774 21.9487 13.6774 C 20.7681 13.6774 19.7187 14.3226 19.7187 15.7419 ZM 19.7187 22.5806 C 19.7187 23.7419 20.7681 24.7742 21.9487 24.7742 C 23.3917 24.7742 24.0476 23.7419 24.0476 22.5806 C 24.0476 21.2903 23.3917 20.3871 21.9487 20.3871 C 20.7681 20.3871 19.7187 21.2903 19.7187 22.5806 Z" fill="#73b9ff"/>	</g></svg>