<?xml version="1.0" standalone="no"?><!-- Generator: Adobe Fireworks CS6, Export SVG Extension by Aaron Beall (http://fireworks.abeall.com) . Version: 0.6.1  --><!DOCTYPE svg PUBLIC "-//W3C//DTD SVG 1.1//EN" "http://www.w3.org/Graphics/SVG/1.1/DTD/svg11.dtd"><svg id="Untitled-P%E1gina%201" viewBox="0 0 22 22" style="background-color:#ffffff00" version="1.1"	xmlns="http://www.w3.org/2000/svg" xmlns:xlink="http://www.w3.org/1999/xlink" xml:space="preserve"	x="0px" y="0px" width="22px" height="22px">	<g id="Capa%201">		<path d="M 11.7189 15.2258 C 11.7498 15.6375 11.7873 15.9077 11.8712 16.038 C 12.0808 16.3765 12.6988 16.3379 12.6988 16.3379 L 12.6988 16.4932 C 11.9397 16.53 11.6902 16.4043 10.9995 16.4222 C 10.3042 16.4043 10.0615 16.53 9.298 16.4932 L 9.298 16.3379 C 9.298 16.3379 9.9203 16.3765 10.1311 16.038 C 10.2072 15.9077 10.2447 15.6375 10.2711 15.2258 C 7.9164 14.917 6.1111 13.1312 6.1111 10.9741 C 6.1111 8.8164 7.9164 7.0308 10.2701 6.7229 C 10.2447 6.3431 10.205 6.0884 10.1311 5.9639 C 9.9203 5.6204 9.298 5.6661 9.298 5.6661 L 9.298 5.5059 C 10.0615 5.4717 10.3042 5.5996 10.9995 5.5768 C 11.6902 5.5996 11.9397 5.4717 12.6988 5.5059 L 12.6988 5.6661 C 12.6988 5.6661 12.0808 5.6204 11.8712 5.9639 C 11.7917 6.0884 11.7564 6.3431 11.7256 6.7229 C 14.0825 7.0283 15.8889 8.8164 15.8889 10.9741 C 15.8889 13.1312 14.0825 14.9226 11.7189 15.2258 ZM 12.0521 0.1838 C 11.7334 0.0613 11.1594 0 10.9681 0 C 9.8841 0 9.4377 0.5515 8.2261 1.2869 C 7.3971 1.7771 6.3768 1.532 5.6116 1.5933 C 5.1652 1.5933 4.7188 1.7771 4.3362 2.0222 C 3.8261 2.2673 3.3159 3.0641 3.2522 3.493 C 2.6145 6.8635 0 5.5767 0 8.3342 C 0 9.1921 0.5739 9.9275 0.5739 10.9694 C 0.5739 11.8885 0 12.6853 0 13.6045 C 0 14.2786 0.0638 15.1365 1.1478 15.688 C 1.9131 16.1169 2.9333 17.0974 3.0609 17.8328 C 3.2522 18.6295 4.0174 20.1616 5.229 20.2842 C 6.1855 20.4067 7.3333 20.1616 8.2261 20.6519 C 8.8 20.9583 9.3102 21.5098 9.9479 21.7549 C 10.2029 21.8774 10.8406 22 10.9681 22 C 12.0521 22 12.4985 21.3872 13.7739 20.6519 C 14.7942 19.9778 15.942 20.5293 17.0261 20.2229 C 17.7276 20.0391 18.6203 19.0586 18.6841 18.507 C 19.3217 15.0752 22 16.3621 22 13.6045 C 22 12.7466 21.4261 12.0112 21.4261 10.9694 C 21.4261 10.05 22 9.2534 22 8.3342 C 22 7.6602 21.8087 6.741 20.8522 6.2507 C 19.6406 5.6379 18.7478 4.2897 18.6841 3.493 C 18.6203 2.6964 17.5362 1.7158 16.771 1.6545 C 15.7507 1.532 14.6029 1.7771 13.7739 1.2869 C 13.1362 0.9805 12.6261 0.4902 12.0521 0.1838 ZM 10.3042 14.7947 C 10.3749 13.6128 10.3882 11.9761 10.3882 11.0071 C 10.3882 10.0302 10.3716 8.3601 10.302 7.1781 C 8.6778 7.5356 7.4607 9.1057 7.4607 10.9852 C 7.4607 12.8682 8.6778 14.4365 10.3042 14.7947 ZM 11.6152 11.0071 C 11.6152 11.9761 11.6263 13.6128 11.6902 14.7969 C 13.3167 14.4377 14.5405 12.8726 14.5405 10.9852 C 14.5405 9.1057 13.3167 7.5356 11.6902 7.1781 C 11.6263 8.3601 11.6152 10.0302 11.6152 11.0071 Z" fill="#ff9326"/>	</g></svg>