<?xml version="1.0" standalone="no"?><!-- Generator: Adobe Fireworks CS6, Export SVG Extension by Aaron Beall (http://fireworks.abeall.com) . Version: 0.6.1  --><!DOCTYPE svg PUBLIC "-//W3C//DTD SVG 1.1//EN" "http://www.w3.org/Graphics/SVG/1.1/DTD/svg11.dtd"><svg id="Untitled-P%E1gina%201" viewBox="0 0 42 17" style="background-color:#ffffff00" version="1.1"	xmlns="http://www.w3.org/2000/svg" xmlns:xlink="http://www.w3.org/1999/xlink" xml:space="preserve"	x="0px" y="0px" width="42px" height="17px">	<g id="Capa%201">		<path d="M 13.655 12.8124 C 14.5433 11.4348 15.0167 9.9287 14.9714 8.2792 C 14.9305 6.793 14.4446 5.4412 13.6677 4.1896 C 13.5203 4.1283 13.4531 3.9875 13.363 3.8707 C 11.2599 1.1451 7.6726 0.2117 4.5002 1.5653 C 1.4465 2.8682 -0.4082 6.155 0.0767 9.5206 C 0.4946 12.4214 2.0818 14.4785 4.7756 15.5332 C 7.4491 16.5798 9.9553 16.1156 12.2208 14.3264 C 12.7739 13.8895 13.1787 13.3185 13.655 12.8124 ZM 9.5492 8.4329 C 9.748 8.5221 9.9165 8.5892 10.0774 8.6715 C 11.4585 9.3778 11.5898 11.2206 10.3256 12.1337 C 9.8564 12.4724 9.3247 12.6615 8.7581 12.6869 C 7.439 12.7461 6.1199 12.7478 4.8027 12.6078 C 4.5314 12.579 4.4406 12.5013 4.4417 12.2205 C 4.4512 9.7333 4.447 7.246 4.4473 4.7587 C 4.4473 4.5763 4.4138 4.3828 4.6965 4.3726 C 6.1123 4.3209 7.531 4.1296 8.9424 4.3739 C 10.4104 4.6281 11.1663 5.7878 10.7754 7.1248 C 10.5906 7.7563 10.1519 8.1588 9.5492 8.4329 ZM 7.4241 5.9663 C 6.4296 5.9663 6.4294 5.9663 6.4297 6.9281 C 6.4297 7.1278 6.4282 7.3274 6.4314 7.527 C 6.4331 7.6235 6.4231 7.7659 6.5486 7.7616 C 7.2449 7.7378 7.9707 7.9576 8.6248 7.5614 C 8.9351 7.3734 9.0393 7.0559 8.9988 6.697 C 8.9581 6.3374 8.7332 6.1523 8.4064 6.0449 C 8.0668 5.9332 7.7216 5.9849 7.4241 5.9663 ZM 7.549 9.2761 C 6.4285 9.2523 6.4285 9.2523 6.4297 10.4032 C 6.4297 10.5366 6.4309 10.67 6.432 10.8035 C 6.4329 10.9197 6.4834 10.9966 6.6046 10.9991 C 7.2605 11.0129 7.9211 11.1611 8.5698 10.9536 C 9.0117 10.8124 9.2637 10.5184 9.228 10.0245 C 9.1924 9.5303 8.8608 9.3362 8.4376 9.2833 C 8.1455 9.2466 7.8455 9.2761 7.549 9.2761 ZM 14.0964 13.202 C 16.0164 14.7538 18.5217 15.0145 20.6913 13.8485 C 22.9822 12.6173 24.2332 10.0559 23.7352 7.3927 C 23.2971 5.049 21.8953 3.443 19.6514 2.7338 C 17.5944 2.0836 15.7142 2.4604 14.0909 3.8101 C 14.1117 3.8237 14.1343 3.8358 14.1587 3.8459 C 14.9969 5.1964 15.5211 6.655 15.5652 8.2587 C 15.6141 10.0386 15.1034 11.6636 14.145 13.1499 L 14.0964 13.202 ZM 16.9226 9.8857 L 16.9232 9.8383 L 16.9232 9.8326 L 16.9232 9.8302 L 16.9232 9.8276 L 16.9232 9.8188 L 16.9232 9.8158 L 16.9232 9.812 L 16.9232 9.8009 L 16.9232 9.7947 L 16.9232 9.7877 L 16.9232 9.7747 L 16.9232 9.7554 L 16.9232 9.7429 L 16.9232 9.7198 L 16.9232 9.6918 L 16.9238 9.6432 L 16.9238 9.6021 L 16.9238 9.569 L 16.9244 9.4923 L 16.925 9.3671 L 16.9282 8.9376 C 16.9297 8.6041 16.9285 8.2705 16.9166 7.9376 C 16.9016 7.5154 17.0759 7.4275 17.4553 7.48 C 18.521 7.6278 18.7451 7.8555 18.7607 8.9475 C 18.7747 9.9298 18.7539 10.9128 18.7722 11.8951 C 18.7783 12.228 18.6589 12.314 18.3435 12.3196 C 16.9224 12.3451 16.9226 12.3542 16.9226 10.9351 L 16.9226 9.8857 ZM 18.9515 5.803 C 18.9583 6.431 18.4907 6.9063 17.8655 6.9066 C 17.2404 6.9071 16.7343 6.4249 16.7308 5.8258 C 16.7274 5.2235 17.2262 4.7301 17.8427 4.726 C 18.4885 4.7216 18.9446 5.1647 18.9515 5.803 ZM 33.6099 17 C 38.2225 16.9955 41.9939 13.1844 42 8.5215 C 42.006 3.8348 38.2313 0.0077 33.5948 0 C 28.9685 -0.0077 25.1801 3.8247 25.181 8.5114 C 25.1821 13.1974 28.9624 17.0046 33.6099 17 ZM 28.1404 8.6826 L 28.1418 8.5973 L 28.1418 8.5955 L 28.1418 8.5935 L 28.1418 8.5917 L 28.1418 8.5892 L 28.1418 8.5867 L 28.1418 8.5842 L 28.1418 8.5818 L 28.1418 8.5792 L 28.1418 8.5768 L 28.1418 8.5742 L 28.1418 8.5718 L 28.1418 8.5692 L 28.1418 8.5668 L 28.1418 8.5643 L 28.1418 8.5612 L 28.1418 8.5581 L 28.1418 8.5549 L 28.1418 8.5519 L 28.1418 8.5487 L 28.1418 8.5457 L 28.1418 8.5425 L 28.1418 8.5394 L 28.1418 8.5363 L 28.1418 8.5325 L 28.1418 8.5281 L 28.1418 8.515 L 28.1418 8.5013 L 28.1418 8.4865 L 28.1418 8.4701 L 28.1418 8.4521 L 28.1418 8.4327 L 28.1418 8.4116 L 28.1418 8.3892 L 28.1418 8.3649 L 28.1418 8.325 L 28.1418 8.2794 L 28.1418 8.2283 L 28.1418 8.1909 L 28.1418 8.1187 L 28.1418 8.0358 L 28.1418 7.9828 L 28.1418 7.8943 L 28.1418 7.8531 L 28.1418 7.7197 L 28.1418 7.5371 L 28.1418 7.2112 L 28.1418 7.0497 C 28.1417 6.6079 28.1406 6.1665 28.1368 5.7247 C 28.135 5.4993 28.1638 5.3534 28.4312 5.3187 C 29.8225 5.1382 31.2483 4.7556 32.6094 5.1102 C 33.7842 5.4161 34.8481 5.0725 35.9597 5.021 C 36.5769 4.9924 37.1838 5.0077 37.7744 5.1842 C 38.7799 5.4845 39.406 6.2786 39.4316 7.3691 C 39.4656 8.8057 39.4395 10.2433 39.4495 11.6804 C 39.4512 11.9127 39.389 12.0079 39.145 12.0002 C 38.6498 11.9847 38.1531 11.9814 37.6582 12.0011 C 37.3778 12.0123 37.335 11.8834 37.3372 11.6428 C 37.3461 10.6235 37.3413 9.604 37.3406 8.5847 C 37.3401 7.2714 36.9783 6.9231 35.6733 6.9785 C 35.6074 6.9813 35.5414 6.988 35.4755 6.9888 C 35.0029 6.9932 34.802 7.1196 34.8385 7.7062 C 34.9193 9.0045 34.8553 10.3116 34.873 11.615 C 34.8774 11.9338 34.7676 12.0151 34.4742 12.0013 C 34.0291 11.9803 33.5811 11.9761 33.1365 12.0024 C 32.8129 12.0217 32.709 11.9203 32.715 11.5859 C 32.7344 10.5001 32.7261 9.4135 32.7209 8.3274 C 32.7161 7.3348 32.3516 6.9752 31.3661 6.9727 C 30.248 6.9696 30.2483 6.9696 30.248 8.0754 C 30.248 9.2452 30.2367 10.4153 30.2555 11.5847 C 30.2607 11.9161 30.1606 12.0291 29.8379 11.9998 C 29.2849 11.95 28.5596 12.2322 28.226 11.882 C 27.9578 11.6006 28.1471 10.869 28.1416 10.3372 C 28.136 9.7856 28.1404 9.2341 28.1404 8.6826 Z" fill="#73b9ff"/>	</g></svg>