<?xml version="1.0" standalone="no"?><!-- Generator: Adobe Fireworks CS6, Export SVG Extension by Aaron Beall (http://fireworks.abeall.com) . Version: 0.6.1  --><!DOCTYPE svg PUBLIC "-//W3C//DTD SVG 1.1//EN" "http://www.w3.org/Graphics/SVG/1.1/DTD/svg11.dtd"><svg id="Untitled-P%E1gina%201" viewBox="0 0 21 36" style="background-color:#ffffff00" version="1.1"	xmlns="http://www.w3.org/2000/svg" xmlns:xlink="http://www.w3.org/1999/xlink" xml:space="preserve"	x="0px" y="0px" width="21px" height="36px">	<g id="Capa%201">		<path d="M 19.1309 0.5 L 1.6492 0.5 C 0.7697 0.6074 0.22 1.2522 0 2.0045 L 0 34.9955 C 0 35.6403 0.9895 36.285 1.5393 36.5 L 19.3508 36.5 C 19.9005 36.5 20.78 35.3179 21 34.8881 L 21 2.0045 C 21 1.1448 19.5707 0.5 19.1309 0.5 ZM 18.911 1.7896 C 19.2408 1.7896 19.5707 2.0045 19.6807 2.2194 L 19.6807 5.5508 L 1.3193 5.5508 L 1.3193 2.2194 C 1.4293 2.0045 1.7592 1.7896 1.979 1.7896 L 18.911 1.7896 ZM 19.6807 6.9478 L 19.6807 30.0522 L 1.3193 30.0522 L 1.3193 6.9478 L 19.6807 6.9478 ZM 19.6807 31.4492 L 19.6807 34.7806 C 19.5707 34.8881 19.4607 35.103 19.2408 35.2104 L 1.7592 35.2104 C 1.6492 35.103 1.4293 34.9955 1.3193 34.7806 L 1.3193 31.4492 L 19.6807 31.4492 ZM 7.8063 3.6165 C 7.8063 3.4015 7.5864 3.0791 7.1466 3.0791 C 6.7068 3.0791 6.5969 3.4015 6.5969 3.6165 C 6.5969 3.8313 6.5969 4.2612 7.1466 4.2612 C 7.3665 4.2612 7.8063 4.0463 7.8063 3.6165 ZM 14.0732 3.0791 L 9.5654 3.0791 C 9.3455 3.2941 9.2356 3.2941 9.2356 3.6165 C 9.2356 3.8313 9.3455 4.0463 9.5654 4.2612 L 14.0732 4.2612 C 14.2932 4.0463 14.4031 3.9388 14.4031 3.7239 C 14.4031 3.4015 14.2932 3.2941 14.0732 3.0791 ZM 17.0625 13.5 L 15.6563 13.5 L 12.0156 23.5 L 13.4219 23.5 L 17.0625 13.5 ZM 8.8125 21.125 C 8.5469 21.375 8.1875 21.5 7.7188 21.5 C 7.2813 21.5 6.9063 21.3594 6.6094 21.0625 C 6.3125 20.7656 6.1719 20.2656 6.1719 19.5781 L 4.6719 19.5781 L 4.6719 19.6094 C 4.6406 20.5156 4.875 21.2031 5.375 21.6719 C 5.8594 22.1406 6.4844 22.4219 7.25 22.5 L 7.25 23.7344 L 8.25 23.7344 L 8.25 22.5 C 9.0156 22.4375 9.625 22.1875 10.0625 21.7656 C 10.5 21.3594 10.7344 20.7969 10.7344 20.0938 C 10.7344 19.4063 10.5156 18.8438 10.0781 18.4375 C 9.6406 18.0313 8.9844 17.6875 8.0938 17.375 C 7.5 17.1719 7.0938 16.9531 6.875 16.7188 C 6.6406 16.4844 6.5313 16.1719 6.5313 15.7969 C 6.5313 15.4063 6.6406 15.0938 6.8594 14.8594 C 7.0781 14.625 7.3906 14.5 7.8281 14.5 C 8.2344 14.5 8.5625 14.6875 8.7969 15.0313 C 9.0313 15.3906 9.1563 15.875 9.1563 16.4688 L 10.7031 16.4688 C 10.7031 15.625 10.4844 14.9531 10.0781 14.4531 C 9.6719 13.9531 9.1094 13.6406 8.3906 13.5156 L 8.3906 12.1094 L 7.375 12.1094 L 7.375 13.5 C 6.625 13.5781 6.0469 13.8281 5.625 14.2344 C 5.1875 14.6406 4.9844 15.1719 4.9844 15.7969 C 4.9844 16.4688 5.2031 17 5.6563 17.3906 C 6.0938 17.7813 6.7656 18.1094 7.6719 18.375 C 8.2188 18.5938 8.6094 18.8438 8.8438 19.0938 C 9.0781 19.3594 9.2031 19.6875 9.2031 20.0781 C 9.2031 20.5156 9.0625 20.875 8.8125 21.125 ZM 11.7644 33.2761 C 11.7644 32.7388 11.2146 32.094 10.4451 32.094 C 9.8953 32.094 9.2356 32.5239 9.2356 33.2761 C 9.2356 33.8135 9.6754 34.5657 10.4451 34.5657 C 10.9948 34.5657 11.7644 34.0283 11.7644 33.2761 Z" fill="#72bbff"/>	</g></svg>