<?xml version="1.0" standalone="no"?><!-- Generator: Adobe Fireworks CS6, Export SVG Extension by Aaron Beall (http://fireworks.abeall.com) . Version: 0.6.1  --><!DOCTYPE svg PUBLIC "-//W3C//DTD SVG 1.1//EN" "http://www.w3.org/Graphics/SVG/1.1/DTD/svg11.dtd"><svg id="Untitled-P%E1gina%201" viewBox="0 0 21 36" style="background-color:#ffffff00" version="1.1"	xmlns="http://www.w3.org/2000/svg" xmlns:xlink="http://www.w3.org/1999/xlink" xml:space="preserve"	x="0px" y="0px" width="21px" height="36px">	<g id="Capa%201">		<path d="M 19.6309 0.5 L 2.1492 0.5 C 1.2697 0.6074 0.7199 1.2522 0.5 2.0045 L 0.5 34.9955 C 0.5 35.6403 1.4895 36.285 2.0392 36.5 L 19.8508 36.5 C 20.4005 36.5 21.2801 35.3179 21.5 34.8881 L 21.5 2.0045 C 21.5 1.1448 20.0707 0.5 19.6309 0.5 ZM 19.411 1.7896 C 19.7408 1.7896 20.0707 2.0045 20.1806 2.2194 L 20.1806 5.5508 L 1.8194 5.5508 L 1.8194 2.2194 C 1.9293 2.0045 2.2592 1.7896 2.4791 1.7896 L 19.411 1.7896 ZM 20.1806 6.9478 L 20.1806 30.0522 L 1.8194 30.0522 L 1.8194 6.9478 L 20.1806 6.9478 ZM 20.1806 31.4492 L 20.1806 34.7806 C 20.0707 34.8881 19.9608 35.103 19.7408 35.2104 L 2.2592 35.2104 C 2.1492 35.103 1.9293 34.9955 1.8194 34.7806 L 1.8194 31.4492 L 20.1806 31.4492 ZM 10.075 23.3296 C 7.9125 22.8739 6.2943 20.8777 6.2943 18.4813 C 6.2943 16.0891 7.9125 14.0908 10.072 13.6359 C 10.1645 15.14 10.1865 17.2656 10.1865 18.509 C 10.1865 19.7424 10.1689 21.8253 10.075 23.3296 ZM 11.9558 23.8784 C 15.0983 23.4924 17.5 21.2125 17.5 18.467 C 17.5 15.7209 15.0983 13.4453 11.9647 13.0565 C 12.0057 12.5731 12.0526 12.2489 12.1583 12.0905 C 12.437 11.6532 13.2586 11.7114 13.2586 11.7114 L 13.2586 11.5074 C 12.2493 11.4641 11.9177 11.627 10.9993 11.5978 C 10.075 11.627 9.7523 11.4641 8.7371 11.5074 L 8.7371 11.7114 C 8.7371 11.7114 9.5645 11.6532 9.8447 12.0905 C 9.9429 12.2489 9.9958 12.5731 10.0295 13.0565 C 6.9002 13.4481 4.5 15.7209 4.5 18.467 C 4.5 21.2125 6.9002 23.4852 10.0309 23.8784 C 9.9958 24.4022 9.9459 24.7463 9.8447 24.912 C 9.5645 25.3428 8.7371 25.2938 8.7371 25.2938 L 8.7371 25.4913 C 9.7523 25.5383 10.075 25.3783 10.9993 25.401 C 11.9177 25.3783 12.2493 25.5383 13.2586 25.4913 L 13.2586 25.2938 C 13.2586 25.2938 12.437 25.3428 12.1583 24.912 C 12.0468 24.7463 11.9968 24.4022 11.9558 23.8784 ZM 11.818 18.509 C 11.818 17.2656 11.8326 15.14 11.9177 13.6359 C 14.0802 14.0908 15.7073 16.0891 15.7073 18.4813 C 15.7073 20.8834 14.0802 22.8752 11.9177 23.3324 C 11.8326 21.8253 11.818 19.7424 11.818 18.509 ZM 8.3063 3.6165 C 8.3063 3.4015 8.0864 3.0791 7.6466 3.0791 C 7.2068 3.0791 7.0969 3.4015 7.0969 3.6165 C 7.0969 3.8313 7.0969 4.2612 7.6466 4.2612 C 7.8665 4.2612 8.3063 4.0463 8.3063 3.6165 ZM 14.5733 3.0791 L 10.0654 3.0791 C 9.8455 3.2941 9.7356 3.2941 9.7356 3.6165 C 9.7356 3.8313 9.8455 4.0463 10.0654 4.2612 L 14.5733 4.2612 C 14.7932 4.0463 14.9031 3.9388 14.9031 3.7239 C 14.9031 3.4015 14.7932 3.2941 14.5733 3.0791 ZM 12.2644 33.2761 C 12.2644 32.7388 11.7147 32.094 10.945 32.094 C 10.3953 32.094 9.7356 32.5239 9.7356 33.2761 C 9.7356 33.8135 10.1754 34.5657 10.945 34.5657 C 11.4948 34.5657 12.2644 34.0283 12.2644 33.2761 Z" fill="#73b9ff"/>	</g></svg>