<svg xmlns="http://www.w3.org/2000/svg" xmlns:xlink="http://www.w3.org/1999/xlink" version="1.1" viewBox="0 0 96 120" x="0px" y="0px"><path d="M57.008 96h-32c-11.028 0-20-8.972-20-20v-30c0-1.1 0.9-2 2-2h66c1.1 0 2 0.9 2 2s-0.9 2-2 2h-64v28c0 8.824 7.176 16 16 16h32c8.82 0 16-7.176 16-16v-12c0-1.1 0.9-2 2-2s2 0.9 2 2v12c0 11.028-8.976 20-20 20z" fill="#000000"/><path d="M71.008 46c-1.1 0-2-0.9-2-2v-16c0-13.908-10.928-24-26-24h-4c-15.072 0-26 10.092-26 24v16c0 1.1-0.9 2-2 2s-2-0.9-2-2v-16c0-15.96 12.9-28 30-28h4c17.104 0 30 12.040 30 28v16c0 1.1-0.9 2-2 2z" fill="#000000"/><path d="M41.004 81.676c-0.512 0-1.024-0.196-1.416-0.584l-11.752-11.68c-0.776-0.772-0.776-2.048-0.008-2.828s2.044-0.78 2.828-0.008l10.524 10.452 46.616-34.892c0.884-0.66 2.132-0.48 2.796 0.408 0.664 0.892 0.484 2.132-0.408 2.796l-48 35.924c-0.34 0.28-0.764 0.412-1.18 0.412z" fill="#000000"/><text x="0" y="111" fill="#000000" font-size="5px" font-weight="bold" font-family="'Helvetica Neue', Helvetica, Arial-Unicode, Arial, Sans-serif">Created by iconsmind.com</text><text x="0" y="116" fill="#000000" font-size="5px" font-weight="bold" font-family="'Helvetica Neue', Helvetica, Arial-Unicode, Arial, Sans-serif">from the Noun Project</text></svg>