<?xml version="1.0" standalone="no"?><!-- Generator: Adobe Fireworks CS6, Export SVG Extension by Aaron Beall (http://fireworks.abeall.com) . Version: 0.6.1  --><!DOCTYPE svg PUBLIC "-//W3C//DTD SVG 1.1//EN" "http://www.w3.org/Graphics/SVG/1.1/DTD/svg11.dtd"><svg id="Untitled-P%E1gina%201" viewBox="0 0 71 72" style="background-color:#ffffff00" version="1.1"	xmlns="http://www.w3.org/2000/svg" xmlns:xlink="http://www.w3.org/1999/xlink" xml:space="preserve"	x="0px" y="0px" width="71px" height="72px">	<g id="Capa%201">		<path d="M 35.5006 0 C 31.8805 0 28.2604 0.5525 24.8051 1.6582 C 24.4319 1.7782 24.1781 2.1287 24.1781 2.5253 L 24.1781 8.2752 L 20.1757 4.2161 C 20.0031 4.041 19.7744 3.9497 19.5417 3.9497 C 19.4012 3.9497 19.2587 3.9828 19.1278 4.0525 C 15.8943 5.7605 12.959 7.9418 10.3947 10.5411 C 7.839 13.1334 5.6892 16.1121 4.0033 19.3915 C 3.8224 19.7439 3.8885 20.1748 4.1646 20.4548 L 8.1656 24.5131 L 2.4991 24.5131 C 2.1082 24.5131 1.7617 24.7701 1.6442 25.1485 C 0.5532 28.6534 0 32.3032 0 35.9962 C 0 39.6885 0.5532 43.3374 1.6433 46.8435 C 1.7607 47.221 2.1073 47.4786 2.4983 47.4786 L 8.1656 47.4786 L 4.1646 51.5368 C 3.8885 51.8173 3.8224 52.2478 4.0033 52.5996 C 7.392 59.1973 12.622 64.5027 19.1278 67.94 C 19.2587 68.0097 19.4012 68.0432 19.5426 68.0432 C 19.7753 68.0432 20.004 67.9515 20.1757 67.7759 L 24.1781 63.7177 L 24.1781 69.4668 C 24.1781 69.8638 24.4311 70.2139 24.8051 70.3338 C 28.2578 71.4399 31.8557 72 35.4998 72 C 39.1439 72 42.7418 71.4399 46.1953 70.3338 C 46.5693 70.2139 46.8224 69.8638 46.8224 69.4668 L 46.8224 63.7177 L 50.823 67.7759 C 50.9961 67.9515 51.2247 68.0423 51.457 68.0423 C 51.5979 68.0423 51.7405 68.0097 51.871 67.94 C 58.3781 64.5027 63.6084 59.1982 66.9968 52.5996 C 67.1777 52.2478 67.1125 51.8173 66.8359 51.5368 L 62.8352 47.4786 L 68.5031 47.4786 C 68.8936 47.4786 69.2388 47.2219 69.358 46.8435 C 70.4477 43.3409 71 39.692 71 35.9962 C 71 32.3001 70.4477 28.6511 69.358 25.1485 C 69.2388 24.7701 68.8936 24.5131 68.5031 24.5131 L 62.8352 24.5131 L 66.8359 20.4557 C 67.1125 20.1748 67.1777 19.7448 66.9968 19.3924 C 63.6084 12.7939 58.3781 7.4893 51.871 4.0525 C 51.7405 3.9828 51.5988 3.9497 51.4579 3.9497 C 51.2256 3.9497 50.9961 4.0419 50.823 4.2161 L 46.8224 8.2739 L 46.8224 2.5253 C 46.8224 2.1287 46.5676 1.7782 46.1953 1.6582 C 42.7408 0.5525 39.1212 0 35.5006 0 L 35.5006 0 ZM 25.0752 11.3795 C 25.1908 11.3795 25.3074 11.3566 25.4178 11.3098 C 25.7527 11.1687 25.9709 10.8375 25.9709 10.4697 L 25.9709 3.1991 C 29.0592 2.2778 32.2805 1.8179 35.5006 1.8179 C 38.7212 1.8179 41.9426 2.2778 45.0291 3.1991 L 45.0291 10.4688 C 45.0291 10.8358 45.2473 11.167 45.5831 11.3081 C 45.6935 11.3548 45.8101 11.3773 45.9258 11.3773 C 46.1579 11.3773 46.3885 11.2852 46.5598 11.111 L 51.6223 5.978 C 57.3414 9.14 61.9803 13.8461 65.0981 19.6455 L 60.0365 24.7794 C 59.7809 25.0396 59.7035 25.4304 59.8427 25.7699 C 59.9817 26.1096 60.3088 26.3309 60.6715 26.3309 L 67.8395 26.3309 C 68.7466 29.4613 69.2076 32.7094 69.2076 35.9962 C 69.2076 39.2827 68.7466 42.5312 67.8395 45.6607 L 60.6715 45.6607 C 60.3088 45.6607 59.9817 45.8821 59.8427 46.2217 C 59.7035 46.5621 59.7809 46.9529 60.0365 47.2122 L 65.0981 52.3456 C 61.9803 58.1459 57.3414 62.8515 51.6223 66.0145 L 46.5598 60.8811 C 46.3885 60.7065 46.1588 60.6156 45.9258 60.6156 C 45.8101 60.6156 45.6943 60.6385 45.5831 60.6844 C 45.2473 60.8255 45.0291 61.1554 45.0291 61.5233 L 45.0291 68.793 C 41.9443 69.7155 38.7229 70.176 35.5006 70.176 C 32.2797 70.176 29.0574 69.7155 25.9709 68.793 L 25.9709 61.5224 C 25.9709 61.1545 25.7527 60.8238 25.4178 60.6826 C 25.3065 60.6359 25.1908 60.613 25.0739 60.613 C 24.8417 60.6139 24.6121 60.7047 24.4407 60.8802 L 19.3768 66.0145 C 13.6595 62.8506 9.0197 58.1459 5.9019 52.3456 L 10.963 47.2122 C 11.2196 46.9529 11.2971 46.5621 11.1578 46.2217 C 11.019 45.8821 10.6921 45.6607 10.3299 45.6607 L 3.1619 45.6607 C 2.2529 42.5268 1.7928 39.28 1.7928 35.9962 C 1.7928 32.712 2.2529 29.4644 3.1627 26.3309 L 10.3299 26.3309 C 10.6921 26.3309 11.019 26.1096 11.1578 25.7699 C 11.2971 25.4304 11.2196 25.0396 10.963 24.7794 L 5.9019 19.6455 C 7.4534 16.7608 9.3893 14.1324 11.6692 11.8201 C 13.9439 9.514 16.5343 7.5507 19.3768 5.978 L 24.4407 11.1118 C 24.6121 11.2874 24.8425 11.3795 25.0752 11.3795 L 25.0752 11.3795 Z" fill="#73b9ff"/>		<path d="M 11.834 35.0031 C 11.834 35.8476 11.2722 36.6842 9.4511 36.6842 C 7.629 36.6842 7.0659 35.8476 7.0659 35.0031 L 7.0659 31.5247 C 7.0659 30.6793 7.629 29.844 9.4511 29.844 C 11.2722 29.844 11.834 30.6793 11.834 31.5247 L 11.834 31.9764 C 11.834 32.1832 11.7667 32.2719 11.5626 32.2719 L 10.5651 32.2719 C 10.3612 32.2719 10.2838 32.1832 10.2838 31.9764 L 10.2838 31.8092 C 10.2838 31.3576 9.9454 31.172 9.4697 31.172 C 8.9941 31.172 8.6666 31.3576 8.6666 31.8092 L 8.6666 34.7177 C 8.6666 35.1711 8.9941 35.3581 9.4697 35.3581 C 9.9454 35.3581 10.2838 35.1711 10.2838 34.7177 L 10.2838 34.4033 C 10.2838 34.1964 10.3612 34.1096 10.5651 34.1096 L 11.5626 34.1096 C 11.7667 34.1096 11.834 34.1964 11.834 34.4033 L 11.834 35.0031 Z" fill="#73b9ff"/>		<path d="M 12.6537 31.5243 C 12.6537 30.6802 13.3034 29.8445 15.125 29.8445 C 16.9461 29.8445 17.6053 30.6802 17.6053 31.5243 L 17.6053 35.0026 C 17.6053 35.8489 16.9461 36.6842 15.125 36.6842 C 13.3034 36.6842 12.6537 35.8489 12.6537 35.0026 L 12.6537 31.5243 ZM 16.0063 31.8101 C 16.0063 31.3576 15.6003 31.1707 15.125 31.1707 C 14.6492 31.1707 14.2531 31.3576 14.2531 31.8101 L 14.2531 34.7182 C 14.2531 35.1698 14.6492 35.3568 15.125 35.3568 C 15.6003 35.3568 16.0063 35.1698 16.0063 34.7182 L 16.0063 31.8101 Z" fill="#73b9ff"/>		<path d="M 24.83 36.3103 C 24.83 36.5166 24.7629 36.6048 24.559 36.6048 L 23.5605 36.6048 C 23.3566 36.6048 23.2802 36.5166 23.2802 36.3103 L 23.2802 33.1953 C 23.2706 33.2249 23.087 33.9124 22.9692 34.2268 L 22.5439 35.2982 C 22.4669 35.4948 22.3605 35.5932 22.166 35.5932 L 21.322 35.5932 C 21.1285 35.5932 21.0332 35.475 20.955 35.2982 L 20.4214 34.0496 C 20.3144 33.7943 20.1888 33.3038 20.17 33.2249 L 20.17 36.3103 C 20.17 36.5166 20.1027 36.6048 19.8987 36.6048 L 18.9494 36.6048 C 18.7455 36.6048 18.6669 36.5166 18.6669 36.3103 L 18.6669 30.2185 C 18.6669 30.0116 18.7455 29.9221 18.9494 29.9221 L 19.8987 29.9221 C 20.0449 29.9221 20.1027 29.9816 20.1497 30.0809 L 21.4681 33.0869 C 21.6042 33.4211 21.7299 33.8238 21.7485 33.8635 C 21.7485 33.8445 21.8473 33.5393 22.0308 33.1058 L 23.2988 30.0602 C 23.3379 29.9618 23.4166 29.9221 23.5605 29.9221 L 24.559 29.9221 C 24.7629 29.9221 24.83 30.0116 24.83 30.2185 L 24.83 36.3103 Z" fill="#73b9ff"/>		<path d="M 27.5886 34.3345 L 27.5886 36.3098 C 27.5886 36.5175 27.5194 36.6048 27.3173 36.6048 L 26.2705 36.6048 C 26.0667 36.6048 25.9884 36.5175 25.9884 36.3098 L 25.9884 30.2185 C 25.9884 30.0116 26.0667 29.923 26.2705 29.923 L 28.3635 29.923 C 30.1847 29.923 30.8243 30.7587 30.8243 31.6032 L 30.8243 32.6542 C 30.8243 33.5005 30.1847 34.3345 28.3635 34.3345 L 27.5886 34.3345 ZM 27.5886 31.25 L 27.5886 33.0084 L 28.3635 33.0084 C 28.8375 33.0084 29.2454 32.8223 29.2454 32.3698 L 29.2454 31.8886 C 29.2454 31.437 28.8375 31.25 28.3635 31.25 L 27.5886 31.25 Z" fill="#73b9ff"/>		<path d="M 35.4911 33.8926 L 36.4417 36.3098 C 36.5086 36.4867 36.3834 36.6048 36.1686 36.6048 L 35.1232 36.6048 C 34.9388 36.6048 34.9005 36.4478 34.8428 36.3098 L 33.9896 34.1391 L 33.2629 34.1391 L 33.2629 36.3098 C 33.2629 36.5175 33.1951 36.6048 32.9921 36.6048 L 31.9449 36.6048 C 31.741 36.6048 31.6644 36.5175 31.6644 36.3098 L 31.6644 30.2185 C 31.6644 30.0116 31.741 29.923 31.9449 29.923 L 34.0387 29.923 C 35.8599 29.923 36.4982 30.7587 36.4982 31.6032 L 36.4982 32.4575 C 36.4982 33.0185 36.2186 33.5786 35.4911 33.8926 L 35.4911 33.8926 ZM 33.2629 31.25 L 33.2629 32.8117 L 34.0387 32.8117 C 34.5131 32.8117 34.9193 32.6255 34.9193 32.1731 L 34.9193 31.8886 C 34.9193 31.437 34.5131 31.25 34.0387 31.25 L 33.2629 31.25 Z" fill="#73b9ff"/>		<path d="M 37.4166 31.5243 C 37.4166 30.6802 38.0646 29.8445 39.8866 29.8445 C 41.7095 29.8445 42.3687 30.6802 42.3687 31.5243 L 42.3687 35.0026 C 42.3687 35.8489 41.7095 36.6842 39.8866 36.6842 C 38.0646 36.6842 37.4166 35.8489 37.4166 35.0026 L 37.4166 31.5243 ZM 40.7676 31.8101 C 40.7676 31.3576 40.3615 31.1707 39.8866 31.1707 C 39.4126 31.1707 39.0152 31.3576 39.0152 31.8101 L 39.0152 34.7182 C 39.0152 35.1698 39.4126 35.3568 39.8866 35.3568 C 40.3615 35.3568 40.7676 35.1698 40.7676 34.7182 L 40.7676 31.8101 Z" fill="#73b9ff"/>		<path d="M 49.5916 36.3103 C 49.5916 36.5166 49.5245 36.6048 49.321 36.6048 L 48.3243 36.6048 C 48.12 36.6048 48.0417 36.5166 48.0417 36.3103 L 48.0417 33.1953 C 48.0321 33.2249 47.8486 33.9124 47.7313 34.2268 L 47.306 35.2982 C 47.2286 35.4948 47.1224 35.5932 46.9276 35.5932 L 46.0849 35.5932 C 45.8901 35.5932 45.7953 35.475 45.7178 35.2982 L 45.183 34.0496 C 45.0778 33.7943 44.9508 33.3038 44.9317 33.2249 L 44.9317 36.3103 C 44.9317 36.5166 44.8638 36.6048 44.662 36.6048 L 43.7106 36.6048 C 43.5071 36.6048 43.4288 36.5166 43.4288 36.3103 L 43.4288 30.2185 C 43.4288 30.0116 43.5071 29.9221 43.7106 29.9221 L 44.662 29.9221 C 44.8064 29.9221 44.8638 29.9816 44.9135 30.0809 L 46.2292 33.0869 C 46.3658 33.4211 46.491 33.8238 46.5102 33.8635 C 46.5102 33.8445 46.6075 33.5393 46.792 33.1058 L 48.0626 30.0602 C 48.1017 29.9618 48.1783 29.9221 48.3243 29.9221 L 49.321 29.9221 C 49.5245 29.9221 49.5916 30.0116 49.5916 30.2185 L 49.5916 36.3103 Z" fill="#73b9ff"/>		<path d="M 52.3502 36.3103 C 52.3502 36.5166 52.2806 36.6048 52.0789 36.6048 L 51.0326 36.6048 C 50.8282 36.6048 50.7499 36.5166 50.7499 36.3103 L 50.7499 30.2185 C 50.7499 30.0116 50.8282 29.9221 51.0326 29.9221 L 52.0789 29.9221 C 52.2806 29.9221 52.3502 30.0116 52.3502 30.2185 L 52.3502 36.3103 Z" fill="#73b9ff"/>		<path d="M 56.5344 31.7409 C 56.5344 31.2884 56.2247 31.1213 55.7777 31.1213 C 55.3324 31.1213 55.0123 31.2884 55.0123 31.7409 L 55.0123 31.8392 C 55.0123 32.1039 55.2158 32.2225 55.3246 32.2613 L 56.9501 32.8214 C 57.6683 33.067 58.1614 33.5781 58.1614 34.3063 L 58.1614 35.0035 C 58.1614 35.848 57.5718 36.6842 55.7499 36.6842 C 53.9287 36.6842 53.3174 35.848 53.3174 35.0035 L 53.3174 34.3451 C 53.3174 34.1391 53.3938 34.0505 53.5991 34.0505 L 54.6062 34.0505 C 54.8097 34.0505 54.8767 34.1391 54.8767 34.3451 L 54.8767 34.7865 C 54.8767 35.2399 55.2532 35.4062 55.7307 35.4062 C 56.2047 35.4062 56.5917 35.2399 56.5917 34.7865 L 56.5917 34.5908 C 56.5917 34.2374 56.1281 34.0694 55.7594 33.9323 L 54.3644 33.4022 C 53.8704 33.2152 53.4634 32.6639 53.4634 32.095 L 53.4634 31.5252 C 53.4634 30.6798 53.9679 29.844 55.7594 29.844 C 57.5518 29.844 58.0937 30.6798 58.0937 31.5252 L 58.0937 31.8882 C 58.0937 32.095 58.0154 32.1828 57.8127 32.1828 L 56.8056 32.1828 C 56.6021 32.1828 56.5344 32.095 56.5344 31.8882 L 56.5344 31.7409 Z" fill="#73b9ff"/>		<path d="M 58.9825 31.5243 C 58.9825 30.6802 59.6321 29.8445 61.4533 29.8445 C 63.2753 29.8445 63.9337 30.6802 63.9337 31.5243 L 63.9337 35.0026 C 63.9337 35.8489 63.2753 36.6842 61.4533 36.6842 C 59.6321 36.6842 58.9825 35.8489 58.9825 35.0026 L 58.9825 31.5243 ZM 62.3351 31.8101 C 62.3351 31.3576 61.9272 31.1707 61.4533 31.1707 C 60.9784 31.1707 60.581 31.3576 60.581 31.8101 L 60.581 34.7182 C 60.581 35.1698 60.9784 35.3568 61.4533 35.3568 C 61.9272 35.3568 62.3351 35.1698 62.3351 34.7182 L 62.3351 31.8101 Z" fill="#73b9ff"/>		<path d="M 20.2397 43.3745 L 21.6707 43.3745 L 21.6707 41.4658 C 21.6707 41.2982 21.7321 41.2259 21.899 41.2259 L 22.7527 41.2259 C 22.9192 41.2259 22.9736 41.2982 22.9736 41.4658 L 22.9736 46.4369 C 22.9736 46.6045 22.9192 46.6768 22.7527 46.6768 L 21.899 46.6768 C 21.7321 46.6768 21.6707 46.6045 21.6707 46.4369 L 21.6707 44.4567 L 20.2397 44.4567 L 20.2397 46.4369 C 20.2397 46.6045 20.1844 46.6768 20.0188 46.6768 L 19.1647 46.6768 C 18.9982 46.6768 18.9351 46.6045 18.9351 46.4369 L 18.9351 41.4658 C 18.9351 41.2982 18.9982 41.2259 19.1647 41.2259 L 20.0188 41.2259 C 20.1844 41.2259 20.2397 41.2982 20.2397 41.4658 L 20.2397 43.3745 Z" fill="#73b9ff"/>		<path d="M 25.9758 45.4499 L 25.9758 45.1853 L 25.2474 45.1853 C 25.019 45.1853 24.9799 45.3141 24.9799 45.4341 L 24.9799 45.539 C 24.9799 45.7233 25.1287 45.7462 25.2474 45.7462 C 25.5161 45.7462 25.794 45.5787 25.9758 45.4499 L 25.9758 45.4499 ZM 23.8732 43.8155 C 23.8732 43.0543 24.386 42.6053 25.5483 42.6053 C 26.7415 42.6053 27.2163 43.0543 27.2163 43.8155 L 27.2163 46.4369 C 27.2163 46.6045 27.152 46.6768 26.9872 46.6768 L 26.2589 46.6768 C 26.0854 46.6768 26.0541 46.6045 26.031 46.4369 L 26.0149 46.3161 C 25.7853 46.5092 25.4226 46.7412 24.9077 46.7412 C 24.1098 46.7412 23.7458 46.2447 23.7458 45.7145 L 23.7458 45.3696 C 23.7458 44.8254 24.1895 44.3367 25.0104 44.3367 L 25.9758 44.3367 L 25.9758 43.8949 C 25.9758 43.6461 25.8574 43.5262 25.5253 43.5262 C 25.193 43.5262 25.0513 43.6064 25.0513 43.8552 L 25.0513 43.9108 C 25.0513 44.0801 24.9873 44.1445 24.8217 44.1445 L 24.1028 44.1445 C 23.9363 44.1445 23.8732 44.0801 23.8732 43.9108 L 23.8732 43.8155 Z" fill="#73b9ff"/>		<path d="M 30.3203 44.0395 C 30.3203 43.8799 30.3129 43.7026 30.0128 43.7026 C 29.705 43.7026 29.3876 43.9117 29.2302 44.0316 L 29.2302 45.3141 C 29.3876 45.4341 29.705 45.6431 30.0128 45.6431 C 30.3129 45.6431 30.3203 45.4667 30.3203 45.3061 L 30.3203 44.0395 ZM 28.1943 46.6768 C 28.0278 46.6768 27.9664 46.6045 27.9664 46.4369 L 27.9664 41.3149 C 27.9664 41.1456 28.0278 41.0732 28.1943 41.0732 L 29.0084 41.0732 C 29.1741 41.0732 29.2302 41.1456 29.2302 41.3149 L 29.2302 43.0217 C 29.4519 42.8452 29.8232 42.6053 30.4156 42.6053 C 31.2135 42.6053 31.5849 43.0772 31.5849 43.8393 L 31.5849 45.5064 C 31.5849 46.2676 31.2135 46.7412 30.4156 46.7412 C 29.7911 46.7412 29.4197 46.4766 29.1989 46.3002 L 29.1827 46.4369 C 29.1666 46.6045 29.1196 46.6768 28.9531 46.6768 L 28.1943 46.6768 Z" fill="#73b9ff"/>		<path d="M 33.5591 46.4369 C 33.5591 46.6045 33.5038 46.6768 33.3381 46.6768 L 32.5242 46.6768 C 32.3575 46.6768 32.2944 46.6045 32.2944 46.4369 L 32.2944 41.3141 C 32.2944 41.1456 32.3575 41.0732 32.5242 41.0732 L 33.3381 41.0732 C 33.5038 41.0732 33.5591 41.1456 33.5591 41.3141 L 33.5591 46.4369 Z" fill="#73b9ff"/>		<path d="M 35.5028 44.1445 L 36.459 44.1445 L 36.459 43.9117 C 36.459 43.6708 36.3099 43.5509 35.9767 43.5509 C 35.6446 43.5509 35.5028 43.6708 35.5028 43.9117 L 35.5028 44.1445 ZM 37.6375 44.7452 C 37.6375 44.8977 37.5741 44.9621 37.4235 44.9621 L 35.5028 44.9621 L 35.5028 45.442 C 35.5028 45.6836 35.6446 45.7957 35.9767 45.7957 C 36.3099 45.7957 36.459 45.6836 36.459 45.442 L 36.459 45.4341 C 36.459 45.2664 36.5217 45.2021 36.6879 45.2021 L 37.3687 45.2021 C 37.5332 45.2021 37.5975 45.2664 37.5975 45.4341 L 37.5975 45.4905 C 37.5975 46.2526 37.1705 46.7412 35.9767 46.7412 C 34.7832 46.7412 34.2705 46.2526 34.2705 45.4905 L 34.2705 43.8552 C 34.2705 43.094 34.7832 42.6053 35.9767 42.6053 C 37.1705 42.6053 37.6375 43.094 37.6375 43.8552 L 37.6375 44.7452 Z" fill="#73b9ff"/>		<path d="M 39.3108 42.6689 C 39.4761 42.6689 39.5239 42.7332 39.5396 42.9017 L 39.5482 43.0384 C 39.7604 42.8532 40.1093 42.6044 40.7336 42.6044 C 41.2076 42.6044 41.5624 42.8135 41.7451 43.1337 C 41.9426 42.9582 42.3208 42.6044 43.0418 42.6044 C 43.7611 42.6044 44.2029 43.0702 44.2029 43.7194 L 44.2029 46.436 C 44.2029 46.6053 44.1403 46.6768 43.9733 46.6768 L 43.1757 46.6768 C 43.0096 46.6768 42.9383 46.6053 42.9383 46.436 L 42.9383 44.0483 C 42.9383 43.7997 42.8913 43.7026 42.6383 43.7026 C 42.3304 43.7026 42.0373 43.8958 41.8956 44.0237 L 41.8956 46.436 C 41.8956 46.6053 41.8312 46.6768 41.666 46.6768 L 40.8676 46.6768 C 40.7014 46.6768 40.631 46.6053 40.631 46.436 L 40.631 44.0483 C 40.631 43.7997 40.5831 43.7026 40.3301 43.7026 C 40.0222 43.7026 39.7291 43.8958 39.5874 44.0237 L 39.5874 46.436 C 39.5874 46.6053 39.5317 46.6768 39.3665 46.6768 L 38.5525 46.6768 C 38.3854 46.6768 38.3228 46.6053 38.3228 46.436 L 38.3228 42.9017 C 38.3228 42.7332 38.3854 42.6689 38.5525 42.6689 L 39.3108 42.6689 Z" fill="#73b9ff"/>		<path d="M 47.2268 43.9593 C 47.2268 43.6946 47.0051 43.6073 46.6824 43.6073 C 46.358 43.6073 46.137 43.6946 46.137 43.9593 L 46.137 45.3784 C 46.137 45.651 46.358 45.7392 46.6824 45.7392 C 47.0051 45.7392 47.2268 45.651 47.2268 45.3784 L 47.2268 43.9593 ZM 44.8726 43.8552 C 44.8726 43.094 45.4882 42.6053 46.6824 42.6053 C 47.8756 42.6053 48.4913 43.094 48.4913 43.8552 L 48.4913 45.4905 C 48.4913 46.2526 47.8756 46.7412 46.6824 46.7412 C 45.4882 46.7412 44.8726 46.2526 44.8726 45.4905 L 44.8726 43.8552 Z" fill="#73b9ff"/>		<path d="M 51.1622 43.7432 C 51.1622 43.5262 50.9482 43.4865 50.7274 43.4865 C 50.5056 43.4865 50.2994 43.5262 50.2994 43.7432 L 50.2994 43.7829 C 50.2994 43.9028 50.3873 43.9672 50.4656 43.9998 L 51.5727 44.4012 C 52.1015 44.5926 52.3633 44.881 52.3633 45.2664 L 52.3633 45.651 C 52.3633 46.1802 51.905 46.7412 50.6952 46.7412 C 49.4854 46.7412 49.0436 46.1802 49.0436 45.651 L 49.0436 45.4826 C 49.0436 45.3299 49.0984 45.2664 49.2576 45.2664 L 49.9838 45.2664 C 50.1411 45.2664 50.1968 45.3299 50.1968 45.4826 L 50.1968 45.5946 C 50.1968 45.8115 50.4586 45.8512 50.6952 45.8512 C 50.9326 45.8512 51.2012 45.8115 51.2012 45.5946 L 51.2012 45.5222 C 51.2012 45.4191 51.137 45.3696 50.8934 45.2744 L 49.7794 44.8413 C 49.4854 44.7284 49.1532 44.3606 49.1532 43.9672 L 49.1532 43.7432 C 49.1532 43.2139 49.5333 42.6053 50.7343 42.6053 C 51.9354 42.6053 52.3154 43.2139 52.3154 43.7432 L 52.3154 43.8552 C 52.3154 44.0157 52.2606 44.0792 52.0945 44.0792 L 51.3752 44.0792 C 51.2169 44.0792 51.1622 44.0157 51.1622 43.8552 L 51.1622 43.7432 Z" fill="#73b9ff"/>		<path d="M 17.5327 50.2605 C 17.6993 50.2605 17.7467 50.3249 17.7624 50.4925 L 17.7698 50.6292 C 17.9832 50.4449 18.3315 50.1961 18.9568 50.1961 C 19.4304 50.1961 19.7861 50.4043 19.9683 50.7253 C 20.1644 50.549 20.5444 50.1961 21.2641 50.1961 C 21.9829 50.1961 22.4265 50.661 22.4265 51.3102 L 22.4265 54.0277 C 22.4265 54.1961 22.363 54.2685 22.1964 54.2685 L 21.3986 54.2685 C 21.2319 54.2685 21.162 54.1961 21.162 54.0277 L 21.162 51.6391 C 21.162 51.3904 21.1137 51.2943 20.8606 51.2943 C 20.5518 51.2943 20.2596 51.4874 20.1179 51.6153 L 20.1179 54.0277 C 20.1179 54.1961 20.0549 54.2685 19.8882 54.2685 L 19.0904 54.2685 C 18.9246 54.2685 18.8534 54.1961 18.8534 54.0277 L 18.8534 51.6391 C 18.8534 51.3904 18.8064 51.2943 18.5533 51.2943 C 18.245 51.2943 17.9523 51.4874 17.8105 51.6153 L 17.8105 54.0277 C 17.8105 54.1961 17.7554 54.2685 17.5887 54.2685 L 16.7739 54.2685 C 16.609 54.2685 16.5461 54.1961 16.5461 54.0277 L 16.5461 50.4925 C 16.5461 50.3249 16.609 50.2605 16.7739 50.2605 L 17.5327 50.2605 Z" fill="#73b9ff"/>		<path d="M 25.3083 53.0416 L 25.3083 52.777 L 24.5795 52.777 C 24.3516 52.777 24.3124 52.9057 24.3124 53.0257 L 24.3124 53.1307 C 24.3124 53.315 24.4611 53.3388 24.5795 53.3388 C 24.8486 53.3388 25.1265 53.1703 25.3083 53.0416 L 25.3083 53.0416 ZM 25.3382 49.6431 C 25.2922 49.7155 25.1969 49.8036 25.0313 49.8036 L 24.4069 49.8036 C 24.2642 49.8036 24.2081 49.7393 24.2803 49.5707 L 24.5956 48.8334 C 24.6599 48.6896 24.7551 48.5935 24.9208 48.5935 L 25.7666 48.5935 C 25.9323 48.5935 25.9788 48.6975 25.8853 48.8334 L 25.3382 49.6431 ZM 23.2053 51.4072 C 23.2053 50.646 23.7185 50.1961 24.8807 50.1961 C 26.0741 50.1961 26.5476 50.646 26.5476 51.4072 L 26.5476 54.0277 C 26.5476 54.1961 26.4846 54.2685 26.3196 54.2685 L 25.5914 54.2685 C 25.4174 54.2685 25.3865 54.1961 25.3634 54.0277 L 25.3473 53.9077 C 25.1174 54.1 24.7551 54.3329 24.2402 54.3329 C 23.4423 54.3329 23.0779 53.8354 23.0779 53.3062 L 23.0779 52.9613 C 23.0779 52.4171 23.5214 51.9285 24.3425 51.9285 L 25.3083 51.9285 L 25.3083 51.4866 C 25.3083 51.2378 25.1895 51.1179 24.8573 51.1179 C 24.525 51.1179 24.3838 51.1981 24.3838 51.4469 L 24.3838 51.5024 C 24.3838 51.6718 24.3194 51.7361 24.1537 51.7361 L 23.4354 51.7361 C 23.2689 51.7361 23.2053 51.6718 23.2053 51.5024 L 23.2053 51.4072 Z" fill="#73b9ff"/>		<path d="M 29.258 51.3349 C 29.258 51.1179 29.0444 51.0782 28.8236 51.0782 C 28.6017 51.0782 28.397 51.1179 28.397 51.3349 L 28.397 51.3745 C 28.397 51.4945 28.4831 51.5589 28.5627 51.5915 L 29.6685 51.9911 C 30.1986 52.1843 30.4594 52.4727 30.4594 52.8572 L 30.4594 53.2427 C 30.4594 53.7719 30.0006 54.3329 28.7914 54.3329 C 27.5812 54.3329 27.1394 53.7719 27.1394 53.2427 L 27.1394 53.0742 C 27.1394 52.9216 27.1946 52.8572 27.3533 52.8572 L 28.0796 52.8572 C 28.2374 52.8572 28.2944 52.9216 28.2944 53.0742 L 28.2944 53.1862 C 28.2944 53.4023 28.5544 53.4429 28.7914 53.4429 C 29.0284 53.4429 29.2972 53.4023 29.2972 53.1862 L 29.2972 53.1139 C 29.2972 53.0099 29.2332 52.9613 28.9893 52.8661 L 27.8752 52.433 C 27.5812 52.3201 27.2507 51.9514 27.2507 51.5589 L 27.2507 51.3349 C 27.2507 50.8056 27.629 50.1961 28.8306 50.1961 C 30.0328 50.1961 30.4113 50.8056 30.4113 51.3349 L 30.4113 51.4469 C 30.4113 51.6065 30.356 51.6718 30.1903 51.6718 L 29.4711 51.6718 C 29.3132 51.6718 29.258 51.6065 29.258 51.4469 L 29.258 51.3349 Z" fill="#73b9ff"/>		<path d="M 34.4318 51.3349 C 34.4318 51.1179 34.22 51.0782 33.9982 51.0782 C 33.7756 51.0782 33.5708 51.1179 33.5708 51.3349 L 33.5708 51.3745 C 33.5708 51.4945 33.6569 51.5589 33.7365 51.5915 L 34.8441 51.9911 C 35.3732 52.1843 35.6342 52.4727 35.6342 52.8572 L 35.6342 53.2427 C 35.6342 53.7719 35.1746 54.3329 33.9661 54.3329 C 32.7567 54.3329 32.3149 53.7719 32.3149 53.2427 L 32.3149 53.0742 C 32.3149 52.9216 32.3693 52.8572 32.5268 52.8572 L 33.2538 52.8572 C 33.413 52.8572 33.4683 52.9216 33.4683 53.0742 L 33.4683 53.1862 C 33.4683 53.4023 33.7291 53.4429 33.9661 53.4429 C 34.2039 53.4429 34.4727 53.4023 34.4727 53.1862 L 34.4727 53.1139 C 34.4727 53.0099 34.4087 52.9613 34.163 52.8661 L 33.049 52.433 C 32.7567 52.3201 32.4246 51.9514 32.4246 51.5589 L 32.4246 51.3349 C 32.4246 50.8056 32.8046 50.1961 34.0052 50.1961 C 35.2067 50.1961 35.5872 50.8056 35.5872 51.3349 L 35.5872 51.4469 C 35.5872 51.6065 35.5298 51.6718 35.365 51.6718 L 34.6458 51.6718 C 34.4879 51.6718 34.4318 51.6065 34.4318 51.4469 L 34.4318 51.3349 Z" fill="#73b9ff"/>		<path d="M 37.4905 54.0286 C 37.4905 54.1961 37.434 54.2685 37.2679 54.2685 L 36.4538 54.2685 C 36.2881 54.2685 36.2256 54.1961 36.2256 54.0286 L 36.2256 50.5013 C 36.2256 50.3329 36.2881 50.2614 36.4538 50.2614 L 37.2679 50.2614 C 37.434 50.2614 37.4905 50.3329 37.4905 50.5013 L 37.4905 54.0286 ZM 37.4905 49.5707 C 37.4905 49.7401 37.434 49.8036 37.2679 49.8036 L 36.4538 49.8036 C 36.2881 49.8036 36.2256 49.7401 36.2256 49.5707 L 36.2256 48.9066 C 36.2256 48.7372 36.2881 48.6649 36.4538 48.6649 L 37.2679 48.6649 C 37.434 48.6649 37.4905 48.7372 37.4905 48.9066 L 37.4905 49.5707 Z" fill="#73b9ff"/>		<path d="M 39.2664 50.2605 C 39.4326 50.2605 39.4805 50.3249 39.496 50.4925 L 39.503 50.6292 C 39.7169 50.4449 40.0648 50.1961 40.6901 50.1961 C 41.1641 50.1961 41.5189 50.4043 41.7017 50.7253 C 41.8982 50.549 42.2782 50.1961 42.9974 50.1961 C 43.7167 50.1961 44.1602 50.661 44.1602 51.3102 L 44.1602 54.0277 C 44.1602 54.1961 44.0968 54.2685 43.9307 54.2685 L 43.1323 54.2685 C 42.9661 54.2685 42.8956 54.1961 42.8956 54.0277 L 42.8956 51.6391 C 42.8956 51.3904 42.847 51.2943 42.5948 51.2943 C 42.2852 51.2943 41.9929 51.4874 41.8512 51.6153 L 41.8512 54.0277 C 41.8512 54.1961 41.7886 54.2685 41.6216 54.2685 L 40.8241 54.2685 C 40.658 54.2685 40.5866 54.1961 40.5866 54.0277 L 40.5866 51.6391 C 40.5866 51.3904 40.5397 51.2943 40.2866 51.2943 C 39.9787 51.2943 39.6856 51.4874 39.5439 51.6153 L 39.5439 54.0277 C 39.5439 54.1961 39.4891 54.2685 39.3221 54.2685 L 38.5073 54.2685 C 38.3428 54.2685 38.2793 54.1961 38.2793 54.0277 L 38.2793 50.4925 C 38.2793 50.3249 38.3428 50.2605 38.5073 50.2605 L 39.2664 50.2605 Z" fill="#73b9ff"/>		<path d="M 47.2625 51.6312 C 47.2625 51.4707 47.2555 51.2943 46.9554 51.2943 C 46.6458 51.2943 46.3302 51.5024 46.1718 51.6224 L 46.1718 52.9057 C 46.3302 53.0257 46.6458 53.2339 46.9554 53.2339 C 47.2555 53.2339 47.2625 53.0583 47.2625 52.8969 L 47.2625 51.6312 ZM 45.8953 50.2605 C 46.0623 50.2605 46.1093 50.3329 46.124 50.5013 L 46.1396 50.6371 C 46.3624 50.4687 46.7337 50.1961 47.3581 50.1961 C 48.1556 50.1961 48.527 50.6689 48.527 51.4301 L 48.527 53.0981 C 48.527 53.8593 48.1556 54.332 47.3581 54.332 C 46.7642 54.332 46.3928 54.0921 46.1718 53.9236 L 46.1718 55.6233 C 46.1718 55.7909 46.1162 55.8632 45.9509 55.8632 L 45.137 55.8632 C 44.9708 55.8632 44.9073 55.7909 44.9073 55.6233 L 44.9073 50.5013 C 44.9073 50.3329 44.9708 50.2605 45.137 50.2605 L 45.8953 50.2605 Z" fill="#73b9ff"/>		<path d="M 50.5021 54.0277 C 50.5021 54.1961 50.4464 54.2685 50.2803 54.2685 L 49.4654 54.2685 C 49.3002 54.2685 49.2367 54.1961 49.2367 54.0277 L 49.2367 48.9057 C 49.2367 48.7372 49.3002 48.6649 49.4654 48.6649 L 50.2803 48.6649 C 50.4464 48.6649 50.5021 48.7372 50.5021 48.9057 L 50.5021 54.0277 Z" fill="#73b9ff"/>		<path d="M 52.4441 51.7353 L 53.4008 51.7353 L 53.4008 51.5033 C 53.4008 51.2625 53.2512 51.1425 52.9198 51.1425 C 52.5875 51.1425 52.4441 51.2625 52.4441 51.5033 L 52.4441 51.7353 ZM 54.5784 52.3369 C 54.5784 52.4894 54.5157 52.5538 54.3653 52.5538 L 52.4441 52.5538 L 52.4441 53.0337 C 52.4441 53.2744 52.5875 53.3873 52.9198 53.3873 C 53.2512 53.3873 53.4008 53.2744 53.4008 53.0337 L 53.4008 53.0257 C 53.4008 52.8581 53.4643 52.7937 53.6304 52.7937 L 54.3096 52.7937 C 54.4766 52.7937 54.5392 52.8581 54.5392 53.0257 L 54.5392 53.0822 C 54.5392 53.8443 54.1122 54.3329 52.9198 54.3329 C 51.7266 54.3329 51.2117 53.8443 51.2117 53.0822 L 51.2117 51.4469 C 51.2117 50.6857 51.7266 50.1961 52.9198 50.1961 C 54.1122 50.1961 54.5784 50.6857 54.5784 51.4469 L 54.5784 52.3369 Z" fill="#73b9ff"/>	</g></svg>