<svg xmlns="http://www.w3.org/2000/svg" xmlns:xlink="http://www.w3.org/1999/xlink" version="1.1" x="0px" y="0px" viewBox="0 0 100 125" enable-background="new 0 0 100 100" xml:space="preserve"><g><path fill="#000000" d="M94.4,28.2c0,0,0-0.1,0-0.1c0-0.1,0-0.1,0-0.2c0,0,0-0.1,0-0.1c0-0.1,0-0.2-0.1-0.2c0,0,0,0,0-0.1   c0-0.1-0.1-0.2-0.1-0.2c0,0,0,0,0,0c0,0,0,0,0-0.1c0-0.1-0.1-0.1-0.2-0.2c0,0-0.1-0.1-0.1-0.1c-0.1,0-0.1-0.1-0.2-0.1   c0,0-0.1,0-0.1-0.1c-0.1,0-0.1-0.1-0.2-0.1c0,0-0.1,0-0.1,0c-0.1,0-0.1,0-0.2,0c0,0-0.1,0-0.1,0c0,0-0.1,0-0.1,0H38.5   c0,0-0.1,0-0.1,0c-0.1,0-0.1,0-0.2,0c0,0-0.1,0-0.1,0c-0.1,0-0.1,0-0.2,0.1c0,0-0.1,0-0.1,0c-0.1,0-0.1,0.1-0.2,0.1   c0,0-0.1,0-0.1,0.1c-0.1,0-0.1,0.1-0.2,0.1c0,0-0.1,0.1-0.1,0.1c0,0-0.1,0.1-0.1,0.1c0,0,0,0,0,0c0,0.1-0.1,0.1-0.1,0.2   c0,0,0,0.1-0.1,0.1c0,0.1,0,0.1-0.1,0.2c0,0,0,0.1,0,0.1c0,0.1,0,0.1,0,0.2c0,0.1,0,0.1,0,0.2c0,0,0,0,0,0.1v41.5   c0,0.9,0.7,1.7,1.7,1.7h54.2c0.9,0,1.7-0.7,1.7-1.7L94.4,28.2C94.4,28.3,94.4,28.2,94.4,28.2z M64.8,46.3L43.4,29.9h44.2L64.8,46.3   z M40.2,68.1V31.6l23.6,18c0,0,0,0,0.1,0c0.1,0.1,0.2,0.1,0.3,0.2c0,0,0.1,0,0.1,0c0.2,0,0.3,0.1,0.5,0.1c0.2,0,0.3,0,0.4-0.1   c0,0,0.1,0,0.1,0c0.1,0,0.2-0.1,0.3-0.2c0,0,0,0,0.1,0l25.3-18.2v36.6H40.2z"/><path fill="#000000" d="M30.3,48.2h-26c-1,0-1.8,0.8-1.8,1.8c0,1,0.8,1.8,1.8,1.8h26c1,0,1.8-0.8,1.8-1.8   C32.1,49,31.3,48.2,30.3,48.2z"/><path fill="#000000" d="M30.3,36.5H13.8c-1,0-1.8,0.8-1.8,1.8c0,1,0.8,1.8,1.8,1.8h16.5c1,0,1.8-0.8,1.8-1.8   C32.1,37.3,31.3,36.5,30.3,36.5z"/><path fill="#000000" d="M30.3,59.5H13.8c-1,0-1.8,0.8-1.8,1.8c0,1,0.8,1.8,1.8,1.8h16.5c1,0,1.8-0.8,1.8-1.8   C32.1,60.2,31.3,59.5,30.3,59.5z"/></g><text x="0" y="115" fill="#000000" font-size="5px" font-weight="bold" font-family="'Helvetica Neue', Helvetica, Arial-Unicode, Arial, Sans-serif">by Carla Romina Porciúncula Valls</text><text x="0" y="120" fill="#000000" font-size="5px" font-weight="bold" font-family="'Helvetica Neue', Helvetica, Arial-Unicode, Arial, Sans-serif">from the Noun Project</text></svg>