<svg xmlns="http://www.w3.org/2000/svg" xmlns:xlink="http://www.w3.org/1999/xlink" version="1.1" x="0px" y="0px" viewBox="-255 347 100 125" enable-background="new -255 347 100 100" xml:space="preserve"><path fill-rule="evenodd" clip-rule="evenodd" d="M-182.5,399.5l-22,30l-22-30h0.1c-2.6-4-4.1-8.8-4.1-14c0-14.4,11.6-26,26-26  c14.4,0,26,11.6,26,26C-178.5,390.7-180,395.5-182.5,399.5L-182.5,399.5z M-204.5,375.5c-5.5,0-10,4.5-10,10s4.5,10,10,10  s10-4.5,10-10S-199,375.5-204.5,375.5z M-208.3,427.5l1.5,2c-11.6,0.1-20.7,1-20.7,2c0,1.1,10.3,2,23,2s23-0.9,23-2  c0-1-9.1-1.9-20.7-2l1.5-2c12.6,0.3,22.2,1.9,22.2,4c0,2.2-11.6,4-26,4c-14.4,0-26-1.8-26-4C-230.5,429.5-220.8,427.8-208.3,427.5z"/><text x="-255" y="462" fill="#000000" font-size="5px" font-weight="bold" font-family="'Helvetica Neue', Helvetica, Arial-Unicode, Arial, Sans-serif">Created by Rohith M S</text><text x="-255" y="467" fill="#000000" font-size="5px" font-weight="bold" font-family="'Helvetica Neue', Helvetica, Arial-Unicode, Arial, Sans-serif">from the Noun Project</text></svg>