<svg xmlns="http://www.w3.org/2000/svg" xmlns:xlink="http://www.w3.org/1999/xlink" version="1.1" x="0px" y="0px" viewBox="0 0 32 40" enable-background="new 0 0 32 32" xml:space="preserve"><g display="none"><rect x="-360.915" y="-134.729" display="inline" fill="#000000" width="449.711" height="215.795"/></g><g display="none"><g display="inline"><g><rect x="4.438" y="13.347" fill="#000000" width="15" height="2"/></g><g><rect x="4.438" y="16.681" fill="#000000" width="15" height="2"/></g><g><rect x="4.438" y="20.014" fill="#000000" width="15" height="2"/></g><path d="M30,0H10.158c-1.1,0-2,0.9-2,2v6.773h2V2H30v13.779h-1.111h-2v2v1.536l-3.047-2.201v2.467l5.047,3.646v-5.448H30    c1.1,0,2-0.9,2-2V2C32,0.9,31.1,0,30,0z"/><polygon points="22.518,16.158 21.994,15.779 21.842,15.779 21.842,18.137 23.842,19.581 23.842,17.114   "/><path fill="#000000" d="M21.842,10.773v13.779h-1.111h-2v2v1.536l-4.371-3.158l-0.524-0.379h-0.647H2V10.773H21.842 M21.842,8.773    H2c-1.1,0-2,0.9-2,2v13.779c0,1.1,0.9,2,2,2h11.189L20.732,32v-5.448h1.111c1.1,0,2-0.9,2-2V10.773    C23.842,9.673,22.942,8.773,21.842,8.773L21.842,8.773z"/></g></g><g><rect x="4.438" y="13.347" width="15" height="2"/><rect x="4.438" y="16.681" width="15" height="2"/><rect x="4.438" y="20.014" width="15" height="2"/><path d="M2,26.552h11.189L20.732,32v-5.448h1.111c1.1,0,2-0.9,2-2v-4.97l5.047,3.646v-5.448H30c1.1,0,2-0.9,2-2V2c0-1.1-0.9-2-2-2   H10.158c-1.1,0-2,0.9-2,2v6.773H2c-1.1,0-2,0.9-2,2v13.779C0,25.652,0.9,26.552,2,26.552z M10.158,2H30v13.779h-1.111h-2v2v1.536   l-3.047-2.201v-6.342c0-1.1-0.9-2-2-2H10.158V2z M2,10.772h19.842v5.007v2.357v6.415h-1.111h-2v2v1.536l-4.371-3.158l-0.524-0.379   h-0.647H2V10.772z"/></g><text x="0" y="47" fill="#000000" font-size="5px" font-weight="bold" font-family="'Helvetica Neue', Helvetica, Arial-Unicode, Arial, Sans-serif">Created by Alfredo Hernandez</text><text x="0" y="52" fill="#000000" font-size="5px" font-weight="bold" font-family="'Helvetica Neue', Helvetica, Arial-Unicode, Arial, Sans-serif">from the Noun Project</text></svg>