<?xml version="1.0" standalone="no"?><!-- Generator: Adobe Fireworks CS6, Export SVG Extension by Aaron Beall (http://fireworks.abeall.com) . Version: 0.6.1  --><!DOCTYPE svg PUBLIC "-//W3C//DTD SVG 1.1//EN" "http://www.w3.org/Graphics/SVG/1.1/DTD/svg11.dtd"><svg id="Untitled-P%E1gina%201" viewBox="0 0 21 23" style="background-color:#ffffff00" version="1.1"	xmlns="http://www.w3.org/2000/svg" xmlns:xlink="http://www.w3.org/1999/xlink" xml:space="preserve"	x="0px" y="0px" width="21px" height="23px">	<g id="Capa%201">		<path d="M 13.1379 2.6018 C 13.1379 4.3711 11.4828 5.2036 10.3448 5.2036 C 8.5862 5.2036 7.8621 3.8507 7.8621 2.6018 C 7.8621 1.0408 8.5862 0 10.4482 0 C 11.8965 0 13.1379 1.0408 13.1379 2.6018 ZM 17.3794 4.3711 C 19.8621 6.5566 21 9.991 21 12.3846 C 21 18.2126 15.931 23 10.4482 23 C 7.1379 23 2.2759 20.9186 0.6207 16.3394 C 0.4138 15.6108 0 14.2579 0 14.0498 L 0 10.7195 C 0 10.4072 0.6207 6.9729 1.8621 6.9729 C 2.2759 6.9729 2.5862 7.4932 2.5862 7.7014 C 2.5862 8.5339 1.4482 9.6787 1.4482 12.3846 C 1.4482 17.4841 5.5862 21.439 10.3448 21.439 C 15.2069 21.439 19.4482 17.1719 19.4482 12.3846 C 19.4482 10.7195 18.6207 8.1177 17.2759 6.6606 C 16.6552 5.8281 15.4138 4.9955 14.6897 4.3711 C 14.4828 4.267 14.4828 4.0588 14.4828 3.8507 C 14.4828 3.4343 14.5862 3.1222 15.1035 3.1222 C 15.931 3.1222 16.6552 3.8507 17.3794 4.3711 ZM 4.8621 3.6426 C 7.3448 6.1403 10.0344 8.7421 12.3103 11.552 C 12.931 12.1765 12.8276 12.3846 12.8276 12.905 C 12.8276 14.2579 11.8965 15.2986 10.5518 15.2986 C 9.931 15.2986 9.4138 15.2986 8.8965 14.6742 C 7.6552 13.009 6.8276 11.0317 5.7931 9.3665 C 5.6897 9.1584 3.3103 5.2036 3.3103 4.5791 C 3.3103 3.8507 3.7241 3.6426 4.3448 3.6426 C 4.5518 3.6426 4.6552 3.4343 4.8621 3.6426 Z" fill="#bfe0ff"/>	</g></svg>