<svg xmlns="http://www.w3.org/2000/svg" xmlns:xlink="http://www.w3.org/1999/xlink" version="1.1" x="0px" y="0px" viewBox="0 0 841.9 744.125" enable-background="new 0 0 841.9 595.3" xml:space="preserve"><g><path fill="#000000" d="M487,289.3c-1.1,0-2.1-0.5-3-1.3c-35.4-35.4-92.6-35.4-128,0c-1.7,1.7-4.3,1.7-6,0s-1.7-4.3,0-6   c38.6-38.6,101.2-38.6,139.8,0c1.7,1.7,1.7,4.3,0,6C489,288.8,488,289.3,487,289.3z"/></g><g><path fill="none" d="M419.9,323.4c-17.5,0-31.8-14.3-31.8-31.8c0,0,0,0,0-0.1c-5.8,3.1-11.3,7.1-16.2,12l-2.7,2.7l2.7,2.7   c12.7,12.7,29.9,19.9,48,19.9c18.1,0,35.2-7,48-19.9l2.7-2.7l-2.7-2.7c-4.9-4.9-10.4-8.9-16.3-12.1v0.1   C451.7,309.1,437.4,323.4,419.9,323.4z"/><path fill="none" d="M413.4,291.6c0,3.6,3,6.5,6.5,6.5c3.6,0,6.5-3,6.5-6.5c0-3.6-3-6.5-6.5-6.5C416.3,285,413.4,288,413.4,291.6z"/><path fill="none" d="M419.9,314.9c12.9,0,23.3-10.5,23.3-23.3c0-1.3-0.1-2.7-0.4-4c-3.2-1.2-6.4-2-9.8-2.7c1.1,2,1.7,4.3,1.7,6.7   c0,8.2-6.7,14.9-14.9,14.9c-8.2,0-14.9-6.7-14.9-14.9c0-2.4,0.6-4.6,1.5-6.7c-3.3,0.7-6.5,1.5-9.8,2.7c-0.2,1.3-0.4,2.6-0.4,3.9   C396.5,304.4,407,314.9,419.9,314.9z"/><path fill="#000000" d="M479.6,303.4l-5.7-5.7c-7-7-15.1-12.4-24-16.2c-3.7-1.5-7.5-2.9-11.4-3.8c-6-1.5-12.3-2.3-18.6-2.3   c-6.4,0-12.7,0.8-18.8,2.4c-3.9,1-7.7,2.3-11.4,3.9c-8.8,3.8-16.8,9.2-23.8,16.1l-5.7,5.7c-1.7,1.7-1.7,4.3,0,6l5.7,5.7   c14.4,14.4,33.7,22.4,53.9,22.4s39.5-8,53.9-22.4l5.7-5.7C481.3,307.6,481.3,305,479.6,303.4z M419.9,285c3.6,0,6.5,3,6.5,6.5   c0,3.6-3,6.5-6.5,6.5c-3.6,0-6.5-3-6.5-6.5C413.3,288,416.3,285,419.9,285z M406.7,284.9c-1.1,2-1.5,4.3-1.5,6.7   c0,8.2,6.7,14.9,14.9,14.9c8.2,0,14.9-6.7,14.9-14.9c0-2.4-0.6-4.6-1.7-6.7c3.3,0.6,6.5,1.5,9.8,2.7c0.2,1.3,0.4,2.6,0.4,4   c0,12.9-10.5,23.3-23.3,23.3s-23.3-10.5-23.3-23.3c0-1.3,0.1-2.6,0.4-3.9C400,286.4,403.3,285.6,406.7,284.9z M468,309   c-12.7,12.9-29.9,19.9-48,19.9c-18.1,0-35.2-7.1-48-19.9l-2.7-2.7l2.7-2.7c4.9-4.9,10.2-8.9,16.2-12c0,0,0,0,0,0.1   c0,17.5,14.3,31.8,31.8,31.8c17.5,0,31.8-14.3,31.8-31.8v-0.1c6,3.1,11.4,7.1,16.3,12.1l2.7,2.7L468,309z"/></g><text x="0" y="610.3" fill="#000000" font-size="5px" font-weight="bold" font-family="'Helvetica Neue', Helvetica, Arial-Unicode, Arial, Sans-serif">Created by isaac claramunt</text><text x="0" y="615.3" fill="#000000" font-size="5px" font-weight="bold" font-family="'Helvetica Neue', Helvetica, Arial-Unicode, Arial, Sans-serif">from the Noun Project</text></svg>