<svg xmlns="http://www.w3.org/2000/svg" xmlns:xlink="http://www.w3.org/1999/xlink" version="1.1" x="0px" y="0px" viewBox="0 0 48 60" enable-background="new 0 0 48 48" xml:space="preserve"><g><path d="M36.556,24.828c-6.312,0-11.447,5.185-11.447,11.56s5.136,11.561,11.447,11.561c6.31,0,11.444-5.186,11.444-11.561   S42.865,24.828,36.556,24.828z M36.556,45.068c-4.724,0-8.567-3.895-8.567-8.681s3.844-8.68,8.567-8.68   c4.723,0,8.564,3.894,8.564,8.68S41.278,45.068,36.556,45.068z"/><path d="M11.446,23.172c6.312,0,11.446-5.186,11.446-11.561c0-6.374-5.134-11.56-11.446-11.56C5.135,0.052,0,5.237,0,11.611   C0,17.986,5.135,23.172,11.446,23.172z M11.446,2.932c4.723,0,8.566,3.894,8.566,8.68s-3.843,8.681-8.566,8.681   S2.88,16.397,2.88,11.611S6.723,2.932,11.446,2.932z"/><path d="M46.556,1.132C45.99,0.573,45.078,0.58,44.52,1.146L1.43,44.829c-0.558,0.566-0.552,1.479,0.014,2.037   c0.28,0.277,0.646,0.415,1.011,0.415c0.372,0,0.744-0.144,1.025-0.429L46.57,3.169C47.128,2.603,47.122,1.69,46.556,1.132z"/></g><text x="0" y="63" fill="#000000" font-size="5px" font-weight="bold" font-family="'Helvetica Neue', Helvetica, Arial-Unicode, Arial, Sans-serif">Created by Creative Stall</text><text x="0" y="68" fill="#000000" font-size="5px" font-weight="bold" font-family="'Helvetica Neue', Helvetica, Arial-Unicode, Arial, Sans-serif">from the Noun Project</text></svg>