<svg xmlns="http://www.w3.org/2000/svg" xmlns:xlink="http://www.w3.org/1999/xlink" version="1.1" x="0px" y="0px" viewBox="0 0 100 125" style="enable-background:new 0 0 100 100;" xml:space="preserve"><path d="M50,87.1c20.5,0,37.1-16.7,37.1-37.1S70.5,12.9,50,12.9S12.9,29.5,12.9,50S29.5,87.1,50,87.1z M50,16.9  c18.3,0,33.1,14.9,33.1,33.1S68.3,83.1,50,83.1S16.9,68.3,16.9,50S31.7,16.9,50,16.9z"/><circle cx="49.6" cy="66.3" r="2.8"/><path d="M40.5,41.5c1.1,0,2-0.9,2-2c0-4.2,3.4-7.6,7.5-7.6c4.1,0,7.5,3.4,7.5,7.6c0,5.4-2.9,7.2-5.6,8.9  c-2.1,1.3-4.5,2.9-4.5,5.9c0,0.1,0,0.1,0,0.2c0,0.1,0,0.1,0,0.2V58c0,1.1,0.9,2,2,2s2-0.9,2-2v-3.2c0-0.1,0-0.1,0-0.2  c0-0.1,0-0.1,0-0.2c0-0.8,0.8-1.4,2.7-2.6c3-1.9,7.5-4.7,7.5-12.3c0-6.4-5.2-11.6-11.5-11.6c-6.3,0-11.5,5.2-11.5,11.6  C38.5,40.7,39.4,41.5,40.5,41.5z"/><text x="0" y="115" fill="#000000" font-size="5px" font-weight="bold" font-family="'Helvetica Neue', Helvetica, Arial-Unicode, Arial, Sans-serif">Created by Jevgeni Striganov</text><text x="0" y="120" fill="#000000" font-size="5px" font-weight="bold" font-family="'Helvetica Neue', Helvetica, Arial-Unicode, Arial, Sans-serif">from the Noun Project</text></svg>