<?xml version="1.0" standalone="no"?><!-- Generator: Adobe Fireworks CS6, Export SVG Extension by Aaron Beall (http://fireworks.abeall.com) . Version: 0.6.1  --><!DOCTYPE svg PUBLIC "-//W3C//DTD SVG 1.1//EN" "http://www.w3.org/Graphics/SVG/1.1/DTD/svg11.dtd"><svg id="Untitled-P%E1gina%201" viewBox="0 0 24 18" style="background-color:#ffffff00" version="1.1"	xmlns="http://www.w3.org/2000/svg" xmlns:xlink="http://www.w3.org/1999/xlink" xml:space="preserve"	x="0px" y="0px" width="24px" height="18px">	<g id="Capa%201">		<path d="M 16.8727 1.2558 C 18.0363 2.093 19.4909 3.6279 19.9273 4.186 C 20.2181 4.6046 20.9454 5.5814 20.9454 6 L 20.9454 6.6977 L 20.5091 6.6977 C 19.4909 2.5116 15.4182 0.4186 11.9272 0.4186 C 8.8727 0.4186 5.0909 2.3721 3.7819 5.4419 C 3.6364 5.8605 3.2 6.5581 3.2 6.9767 L 3.2 7.6744 L 3.491 7.9535 C 4.2182 7.3953 4.8 6.8372 5.2364 6.2791 L 5.6727 6.2791 L 5.6727 6.6977 C 4.8 7.5349 3.2 9.2093 2.7636 9.2093 C 2.4728 9.2093 0.8727 7.5349 0 6.6977 L 0 6.2791 L 0.4363 6.2791 C 0.8727 6.8372 1.7454 7.9535 2.1818 7.9535 C 2.9091 7.9535 3.0546 6.1396 3.0546 6 C 3.491 5.4419 3.6364 4.6046 3.9272 4.186 C 5.9636 1.1163 9.1636 0 11.9272 0 C 13.5273 0 15.7091 0.4186 16.8727 1.2558 ZM 24 11.3023 L 24 11.7209 L 23.5637 11.7209 C 23.1273 11.1628 22.1091 10.0465 21.6727 10.0465 C 20.8 10.0465 20.9454 11.7209 20.8 12 C 20.5091 12.5581 20.2181 13.2558 19.9273 13.6744 C 19.2 14.7907 18.0363 15.907 16.8727 16.6046 C 15.8546 17.1628 13.6727 18 13.2364 18 L 10.6182 18 C 9.4545 17.5814 8 17.1628 6.9818 16.6046 C 5.8182 16.0465 4.6545 14.7907 3.9272 13.6744 C 3.6364 13.2558 3.0546 12.2791 3.0546 12 L 3.0546 11.3023 C 3.2 11.3023 3.491 11.5814 3.491 11.7209 C 5.3818 16.186 8.5818 17.5814 11.9272 17.5814 C 15.8546 17.5814 19.4909 15.3488 20.9454 10.4651 L 20.5091 10.0465 C 19.7818 10.6047 19.2 11.1628 18.7636 11.7209 L 18.3273 11.7209 L 18.3273 11.3023 C 19.2 10.4651 20.8 8.7907 21.0909 8.7907 C 21.5273 8.7907 23.1273 10.4651 24 11.3023 Z" fill="#888888"/>	</g></svg>