<svg xmlns="http://www.w3.org/2000/svg" xmlns:xlink="http://www.w3.org/1999/xlink" version="1.1" x="0px" y="0px" viewBox="0 0 100 125" enable-background="new 0 0 100 100" xml:space="preserve"><g display="none"><g display="inline"><path fill="#000000" stroke="#E00C02" stroke-width="4" stroke-miterlimit="10" d="M74,37v41c0,1.65-1.35,3-3,3H29    c-1.65,0-3-1.35-3-3V37"/></g><g display="inline"><path fill="#000000" stroke="#E00C02" stroke-width="4" stroke-miterlimit="10" d="M74,43v41c0,1.65-1.35,3-3,3H29    c-1.65,0-3-1.35-3-3V43"/></g><g display="inline"><path fill="#000000" stroke="#E00C02" stroke-width="4" stroke-miterlimit="10" d="M74,31v41c0,1.65-1.35,3-3,3H29    c-1.65,0-3-1.35-3-3V31"/></g><line display="inline" fill="#000000" stroke="#E00C02" stroke-width="4" stroke-miterlimit="10" x1="66" y1="57" x2="66" y2="69"/><line display="inline" fill="#000000" stroke="#E00C02" stroke-width="4" stroke-miterlimit="10" x1="34" y1="57" x2="34" y2="69"/><path display="inline" fill="#000000" stroke="#E00C02" stroke-width="4" stroke-miterlimit="10" d="M30,41"/><polyline display="inline" fill="#000000" stroke="#E00C02" stroke-width="4" stroke-miterlimit="10" points="27,41 20,41 20,31    80,31 80,41 73,41  "/><g display="inline"><path fill="#000000" stroke="#E00C02" stroke-width="4" stroke-miterlimit="10" d="M27,57H15c-3.85,0-7-3.15-7-7V22    c0-3.85,3.15-7,7-7h70c3.85,0,7,3.15,7,7v28c0,3.85-3.15,7-7,7H73"/></g><path display="inline" fill="#000000" stroke="#E00C02" stroke-width="4" stroke-miterlimit="10" d="M35.17,31   c-0.1,0.655-0.17,1.319-0.17,2c0,7.732,6.716,14,15,14s15-6.268,15-14c0-0.681-0.07-1.345-0.17-2"/></g><g><path d="M68,69h-4V57h4V69z M36,57h-4v12h4V57z M94,22v28c0,4.963-4.037,9-9,9h-9v25c0,2.757-2.243,5-5,5H29c-2.757,0-5-2.243-5-5   V59h-9c-4.963,0-9-4.037-9-9V22c0-4.963,4.037-9,9-9h70C89.963,13,94,17.037,94,22z M37,33c0,6.617,5.832,12,13,12s13-5.383,13-12   H37z M33,33h-5v39c0,0.542,0.458,1,1,1h42c0.542,0,1-0.458,1-1V33h-5c0,8.822-7.626,16-17,16S33,41.822,33,33z M76,39h2v-6h-2V39z    M28,78c0,0.542,0.458,1,1,1h42c0.542,0,1-0.458,1-1v-1.102C71.677,76.965,71.343,77,71,77H29c-0.343,0-0.677-0.035-1-0.102V78z    M24,33h-2v6h2V33z M72,84v-1.102C71.677,82.965,71.343,83,71,83H29c-0.343,0-0.677-0.035-1-0.102V84c0,0.542,0.458,1,1,1h42   C71.542,85,72,84.542,72,84z M90,22c0-2.757-2.243-5-5-5H15c-2.757,0-5,2.243-5,5v28c0,2.757,2.243,5,5,5h9V43h-6V29h64v14h-6v12h9   c2.757,0,5-2.243,5-5V22z"/></g><text x="0" y="115" fill="#000000" font-size="5px" font-weight="bold" font-family="'Helvetica Neue', Helvetica, Arial-Unicode, Arial, Sans-serif">Created by Yuri Mazursky</text><text x="0" y="120" fill="#000000" font-size="5px" font-weight="bold" font-family="'Helvetica Neue', Helvetica, Arial-Unicode, Arial, Sans-serif">from the Noun Project</text></svg>