<?xml version="1.0" standalone="no"?><!-- Generator: Adobe Fireworks CS6, Export SVG Extension by Aaron Beall (http://fireworks.abeall.com) . Version: 0.6.1  --><!DOCTYPE svg PUBLIC "-//W3C//DTD SVG 1.1//EN" "http://www.w3.org/Graphics/SVG/1.1/DTD/svg11.dtd"><svg id="Untitled-P%E1gina%201" viewBox="0 0 21 25" style="background-color:#ffffff00" version="1.1"	xmlns="http://www.w3.org/2000/svg" xmlns:xlink="http://www.w3.org/1999/xlink" xml:space="preserve"	x="0px" y="0px" width="21px" height="25px">	<g id="Capa%201">		<path d="M 19 19.0599 L 14.5754 18.6288 L 14.4749 18.7245 L 16.8883 24.4252 C 16.3855 24.6168 15.8324 24.8563 15.3296 25 L 13.0167 19.2994 L 10 22.1736 L 10 9 L 19 19.0599 Z" fill="#4358ae"/>		<path d="M 11.0787 0.4954 L 11.0787 5.5321 C 10.9133 5.6973 10.748 6.1101 10.5 6.1101 C 10.1693 6.1101 9.9213 5.6973 9.9213 5.6147 L 9.9213 0.4954 C 10.0039 0.2477 10.1693 0 10.5 0 C 10.748 0 11.0787 0.3303 11.0787 0.4954 ZM 7.2756 6.5229 C 7.4409 6.6055 7.5237 6.7706 7.5237 6.9358 C 7.5237 7.3486 7.1929 7.5138 6.9448 7.5138 C 6.6141 7.5138 6.4489 7.2661 6.2008 7.0183 C 6.1182 6.9358 2.9763 3.9633 2.9763 3.4679 C 2.9763 3.2202 2.9763 2.9725 3.4724 2.9725 C 4.1339 2.9725 7.1102 6.2753 7.2756 6.5229 ZM 18.0237 3.4679 C 18.0237 3.9633 14.5511 7.1835 14.3859 7.3486 C 14.3031 7.4312 14.2205 7.5138 13.9724 7.5138 C 13.5591 7.5138 13.4763 7.1835 13.4763 6.9358 C 13.4763 6.7706 13.7244 6.3578 13.9724 6.1926 C 13.9724 6.1101 16.9489 2.9725 17.5276 2.9725 C 17.9409 2.9725 18.0237 3.2202 18.0237 3.4679 ZM 5.374 9.9083 C 5.5394 9.9083 6.1182 9.9908 6.1182 10.4862 C 6.1182 10.7339 5.7047 11.0642 5.5394 11.0642 L 0.4961 11.0642 C 0.248 10.899 0 10.7339 0 10.4862 C 0 10.2385 0.3307 9.8257 0.6614 9.9083 L 5.374 9.9083 ZM 20.2559 9.9083 C 20.4213 9.9083 21 9.9908 21 10.4862 C 21 10.7339 20.5867 11.0642 20.4213 11.0642 L 15.3779 11.0642 C 15.1299 10.899 14.8818 10.7339 14.8818 10.4862 C 14.8818 10.2385 15.2126 9.8257 15.5433 9.9083 L 20.2559 9.9083 ZM 7.5237 13.9541 C 7.5237 14.2844 7.2756 14.4496 7.0276 14.7798 C 6.9448 14.7798 3.9685 18 3.4724 18 C 2.9763 18 2.9763 17.6697 2.9763 17.5046 C 2.9763 16.9266 6.4489 13.6238 6.5315 13.6238 C 6.6141 13.5413 6.7795 13.4587 6.9448 13.4587 C 7.3583 13.4587 7.5237 13.7064 7.5237 13.9541 Z" fill="#4358ae"/>	</g></svg>