<?xml version="1.0" standalone="no"?><!-- Generator: Adobe Fireworks CS6, Export SVG Extension by Aaron Beall (http://fireworks.abeall.com) . Version: 0.6.1  --><!DOCTYPE svg PUBLIC "-//W3C//DTD SVG 1.1//EN" "http://www.w3.org/Graphics/SVG/1.1/DTD/svg11.dtd"><svg id="Untitled-P%E1gina%201" viewBox="0 0 36 36" style="background-color:#ffffff00" version="1.1"	xmlns="http://www.w3.org/2000/svg" xmlns:xlink="http://www.w3.org/1999/xlink" xml:space="preserve"	x="0px" y="0px" width="36px" height="36px">	<g id="Capa%201">		<path d="M 26.8073 10.8853 C 27.0444 10.8853 28.7052 10.2437 29.6541 9.8431 C 29.4169 10.4841 28.7052 11.6866 27.7563 12.2476 C 27.8353 12.3279 27.7563 12.3279 27.9142 12.3279 C 28.1517 12.3279 29.4169 11.9274 30.2076 11.7667 C 29.6541 12.488 28.7052 13.4504 27.9934 14.0113 C 27.9934 14.7327 27.9142 15.4543 27.8353 16.1756 C 26.6492 24.2719 20.5599 28.2 14.7077 28.2 C 12.6516 28.2 9.5673 27.398 7.9065 26.1161 C 8.2229 26.1958 8.6184 26.1958 8.7765 26.1958 C 10.358 26.1958 13.0469 25.3941 14.4703 24.1115 C 13.0469 24.1115 10.8325 22.829 10.2791 21.0655 L 10.2791 20.8251 C 10.8325 20.9054 11.4653 20.9054 12.019 20.8251 L 12.1769 20.665 C 10.9117 20.5846 8.7765 18.4203 8.6974 17.2178 C 8.6974 17.0574 8.6184 16.9773 8.6184 16.8172 L 8.6184 16.0152 C 9.4091 16.4161 10.5952 16.6565 10.5952 16.4964 C 10.5952 16.3357 9.1719 15.6144 8.6974 13.6105 C 8.6184 13.2897 8.6184 12.8088 8.6184 12.5684 C 8.6184 11.847 8.8557 10.965 9.251 10.324 C 11.8605 13.4504 15.2614 14.813 18.1874 15.2139 C 18.1874 15.2139 18.8198 15.2139 18.8991 15.1335 C 18.8198 14.813 18.741 14.2518 18.741 14.0914 C 18.741 11.5262 20.7179 9.442 23.3276 9.442 C 25.621 9.442 26.57 10.8853 26.8073 10.8853 ZM -0.214 18 C -0.214 27.9411 7.8651 36 17.8316 36 C 27.7979 36 35.8773 27.9411 35.8773 18 C 35.8773 8.0586 27.7979 0 17.8316 0 C 7.8651 0 -0.214 8.0586 -0.214 18 Z" fill="#72bbff"/>	</g></svg>