<?xml version="1.0" standalone="no"?><!-- Generator: Adobe Fireworks CS6, Export SVG Extension by Aaron Beall (http://fireworks.abeall.com) . Version: 0.6.1  --><!DOCTYPE svg PUBLIC "-//W3C//DTD SVG 1.1//EN" "http://www.w3.org/Graphics/SVG/1.1/DTD/svg11.dtd"><svg id="Untitled-P%E1gina%201" viewBox="0 0 36 36" style="background-color:#ffffff00" version="1.1"	xmlns="http://www.w3.org/2000/svg" xmlns:xlink="http://www.w3.org/1999/xlink" xml:space="preserve"	x="0px" y="0px" width="36px" height="36px">	<g id="Capa%201">		<path d="M 25.7279 9.0521 C 26.1179 9.1171 26.5728 9.1171 27.0279 9.1171 C 27.483 9.1827 28.0029 9.1827 28.4578 9.3133 C 28.5879 9.3133 28.718 9.4438 28.978 9.5091 C 29.5628 9.7706 30.3428 10.6856 30.4727 11.2739 C 30.6029 11.7315 30.7977 12.2545 30.8627 12.7121 C 30.9929 13.6268 31.1879 15.5877 31.1879 15.7839 L 31.1879 20.751 C 30.7328 22.8425 31.5777 25.7833 28.653 27.1563 C 27.6779 27.6137 26.7028 27.4175 25.7279 27.5481 L 21.958 27.6786 L 11.7532 27.5481 C 11.3632 27.4828 10.9082 27.4175 10.4534 27.4175 C 9.9981 27.3522 9.4133 27.3522 9.0233 27.2216 C 8.3732 27.0904 7.3334 26.3716 7.0734 25.6531 C 6.8782 25.1954 6.6832 24.6725 6.6184 24.2151 C 6.4233 23.1039 6.2934 21.0121 6.2934 20.8816 L 6.2934 15.7186 C 6.3584 14.9995 6.4233 14.2151 6.4883 13.4306 C 6.5532 12.7121 6.6832 11.9274 6.9432 11.2739 C 7.7885 8.8556 10.1283 9.1827 11.7532 9.0521 L 15.4581 8.9209 L 25.7279 9.0521 ZM -0.0912 18 C -0.0912 27.9414 7.9878 36 17.9545 36 C 27.9207 36 36 27.9414 36 18 C 36 8.0586 27.9207 0 17.9545 0 C 7.9878 0 -0.0912 8.0586 -0.0912 18 ZM 28.7829 10.6203 C 27.8079 9.9668 25.0781 10.0321 24.8177 10.0321 L 12.5984 10.0321 C 12.4033 10.0321 10.3232 10.163 9.2185 10.3589 C 8.9584 10.3589 8.3732 10.7512 8.1785 11.1433 C 7.8533 11.6662 7.7235 12.3198 7.5934 12.908 C 7.5283 13.3653 7.5283 13.8227 7.4634 14.2803 C 7.3984 14.8033 7.3984 15.3915 7.3334 15.9145 L 7.3334 20.6857 C 7.3334 21.9275 7.5934 26.0451 9.2185 26.1757 C 9.6733 26.241 10.1283 26.3063 10.5183 26.3716 C 11.1683 26.3716 11.8181 26.5028 12.4684 26.5681 L 24.948 26.5681 C 25.1428 26.5681 26.3129 26.3716 26.9628 26.3716 C 30.6029 26.5028 29.6927 22.4504 30.148 20.5551 L 30.148 16.0451 C 30.148 15.8489 30.0178 14.1498 29.8879 13.3004 C 29.7579 12.385 29.7579 11.2739 28.7829 10.6203 ZM 23.843 18.2674 L 15.6533 23.4963 L 15.6533 13.1695 L 23.843 18.2674 Z" fill="#72bbff"/>	</g></svg>